<?xml version="1.0" encoding="utf-8"?>
<!-- Generator: Adobe Illustrator 16.0.3, SVG Export Plug-In . SVG Version: 6.00 Build 0)  -->
<!DOCTYPE svg PUBLIC "-//W3C//DTD SVG 1.1//EN" "http://www.w3.org/Graphics/SVG/1.1/DTD/svg11.dtd">
<svg version="1.1" id="Capa_1" xmlns="http://www.w3.org/2000/svg" xmlns:xlink="http://www.w3.org/1999/xlink" x="0px" y="0px"
	 width="1224px" height="792px" viewBox="0 0 1224 792" enable-background="new 0 0 1224 792" xml:space="preserve">
<g>
	<g>
		<path fill-rule="evenodd" clip-rule="evenodd" fill="#FEFEFE" d="M262,573.927c0-194.643,0-389.284,0-583.927
			c322.626,0,645.252,0,967.878,0c0,194.643,0,389.284,0,583.927C907.252,573.927,584.626,573.927,262,573.927z M1055.891,325.956
			c-0.33-9.784-0.566-19.573-1.011-29.352c-0.702-15.438-12.729-27.852-27.919-28.584c-11.771-0.568-23.584-0.415-35.337-1.193
			c-4.988-0.33-9.956-1.96-14.781-3.48c-4.714-1.484-9.138-4.803-13.859-5.182c-15.521-1.246-31.118-1.632-46.693-2.086
			c-3.417-0.1-6.892,0.744-10.294,1.393c-17.95,3.419-26.913,16.41-30.653,32.369c-2.717,11.59-1.74,24.045-2.41,36.115
			c-0.003,8.151-0.312,16.318,0.074,24.452c0.438,9.226,2.386,17.957,9.576,24.807c7.018,6.683,15.649,8.592,24.684,8.647
			c35.268,0.213,70.538,0.133,105.806,0.042c5.781-0.015,11.585-0.388,17.332-1.015c12.402-1.355,23.377-12.145,24.38-24.632
			C1055.646,347.529,1055.559,336.726,1055.891,325.956z"/>
		<path fill-rule="evenodd" clip-rule="evenodd" fill="#FDF6ED" d="M872.933,325.956c0.67-12.07-0.307-24.525,2.41-36.115
			c3.74-15.959,12.703-28.95,30.653-32.369c3.402-0.648,6.877-1.492,10.294-1.393c15.575,0.454,31.172,0.84,46.693,2.086
			c4.722,0.379,9.146,3.698,13.859,5.182c4.825,1.52,9.793,3.15,14.781,3.48c11.753,0.778,23.565,0.625,35.337,1.193
			c15.189,0.732,27.217,13.147,27.919,28.584c0.444,9.779,0.681,19.568,1.011,29.352c-1.996-1.333-3.992-2.665-5.988-3.998
			c-0.209-8.098,0.907-16.361-2.992-23.999c-0.454-2.571-0.521-5.287-1.428-7.688c-3.953-10.471-12.347-14.802-22.888-15.224
			c-9.552-0.382-19.151,0.298-28.688-0.229c-5.845-0.322-12.229-0.808-17.292-3.361c-12.845-6.478-26.047-8.769-40.247-7.607
			c-7.68,0.628-15.478-0.292-23.177,0.2c-17.599,1.123-30.403,16.409-31.273,32.911c-0.999,8.332-1.998,16.665-2.997,24.997
			C876.925,323.291,874.929,324.623,872.933,325.956z"/>
		<path fill-rule="evenodd" clip-rule="evenodd" fill="#F4F1F6" d="M1049.902,321.958c1.996,1.333,3.992,2.665,5.988,3.998
			c-0.332,10.77-0.244,21.574-1.106,32.301c-1.003,12.487-11.978,23.276-24.38,24.632c-5.747,0.627-11.551,1-17.332,1.015
			c-35.268,0.091-70.538,0.171-105.806-0.042c-9.034-0.055-17.666-1.964-24.684-8.647c-7.19-6.85-9.139-15.581-9.576-24.807
			c-0.386-8.134-0.077-16.301-0.074-24.452c1.996-1.333,3.992-2.665,5.987-3.998c0.004,6.333,0.006,12.665,0.01,18.997
			c-0.002,2.328-0.162,4.667,0.018,6.982c1.549,19.983,9.193,29.304,28.581,29.755c37.889,0.883,75.814,0.467,113.721,0.122
			c10.255-0.093,20.248-3.313,24.548-13.689c2.696-6.506,2.819-14.078,4.096-21.172
			C1049.896,335.955,1049.9,328.956,1049.902,321.958z"/>
		<path fill-rule="evenodd" clip-rule="evenodd" fill="#FDEED8" d="M881.917,296.961c0.87-16.502,13.675-31.788,31.273-32.911
			c7.699-0.492,15.497,0.428,23.177-0.2c14.2-1.162,27.402,1.13,40.247,7.607c5.063,2.553,11.447,3.039,17.292,3.361
			c9.537,0.526,19.137-0.153,28.688,0.229c10.541,0.422,18.935,4.752,22.888,15.224c0.906,2.401,0.974,5.118,1.428,7.688
			c-0.672-0.002-1.343-0.005-2.014-0.008c-3.201-14.341-14.746-20.186-26.48-20.006c-7.822,0.12-15.668,0.374-23.467-0.074
			c-8.373-0.48-16.501-1.491-24.514-5.247c-7.064-3.311-15.338-4.707-23.219-5.444c-9.571-0.894-19.291-0.231-28.947-0.207
			c-15.612,0.039-27.135,8.877-31.334,23.996c-0.674,2.001-1.349,4.002-2.023,6.003
			C883.914,296.969,882.915,296.965,881.917,296.961z"/>
		<path fill-rule="evenodd" clip-rule="evenodd" fill="#F3E4E2" d="M881.917,296.961c0.998,0.004,1.997,0.008,2.995,0.012
			c-0.327,9.342-0.655,18.684-0.982,28.026c-0.333,4.103-0.615,8.209-1.02,12.306c-0.22,2.23-0.647,4.44-0.98,6.66
			c-1-1.004-2-2.007-3-3.01c-0.004-6.332-0.006-12.664-0.01-18.997C879.919,313.626,880.918,305.293,881.917,296.961z"/>
		<path fill-rule="evenodd" clip-rule="evenodd" fill="#F3E4E2" d="M1044.896,297.951c0.671,0.003,1.342,0.006,2.014,0.008
			c3.899,7.638,2.783,15.901,2.992,23.999c-0.002,6.998-0.006,13.997-0.008,20.995c-1,0.337-2,0.674-3.001,1.011
			c-0.333-2.026-0.829-4.041-0.97-6.081c-0.41-5.958-0.679-11.926-1.003-17.891c-0.019-6.672-0.037-13.345-0.056-20.018
			C1044.875,299.3,1044.886,298.625,1044.896,297.951z"/>
		<path fill-rule="evenodd" clip-rule="evenodd" fill="#E9E6EF" d="M1046.894,343.963c1.001-0.337,2.001-0.674,3.001-1.011
			c-1.278,7.094-1.401,14.666-4.098,21.172c-4.3,10.376-14.293,13.596-24.548,13.689c-37.906,0.345-75.832,0.761-113.721-0.122
			c-19.388-0.451-27.032-9.771-28.581-29.755c-0.18-2.314-0.02-4.654-0.018-6.982c1,1.003,2,2.006,2.999,3.01
			c0.676,1.331,1.352,2.663,2.026,3.995c-0.694,5.235,0.754,9.866,3.957,14c1.538,2.265,2.664,5.034,4.695,6.697
			c5.389,4.418,12.143,5.211,18.778,5.238c34.313,0.14,68.626,0.141,102.938-0.016c4.913-0.022,9.869-0.912,14.72-1.843
			c6.958-1.334,11.427-5.986,13.725-12.389C1044.589,354.579,1045.551,349.203,1046.894,343.963z"/>
		<path fill-rule="evenodd" clip-rule="evenodd" fill="#FDE7C1" d="M1044.896,297.951c-0.011,0.674-0.021,1.349-0.031,2.022
			c-1.925-1.681-3.849-3.36-5.773-5.041c-2.017-8.966-4.424-10.971-13.403-10.995c-17.247-0.045-34.495-0.029-51.742-0.117
			c-1.729-0.009-3.455-0.556-5.184-0.853c0.128-6.476-2.545-9.941-8.26-9.975c-18.115-0.109-36.23-0.112-54.346,0.01
			c-5.403,0.037-8.095,3.284-8.095,8.963c-2.766,2.994-5.529,5.987-8.294,8.982c-0.944,0.007-1.889,0.014-2.833,0.021
			c4.199-15.119,15.722-23.957,31.334-23.996c9.656-0.024,19.376-0.687,28.947,0.207c7.881,0.737,16.154,2.133,23.219,5.444
			c8.013,3.755,16.141,4.766,24.514,5.247c7.799,0.448,15.645,0.194,23.467,0.074C1030.15,277.766,1041.695,283.61,1044.896,297.951
			z"/>
		<path fill-rule="evenodd" clip-rule="evenodd" fill="#F3D1C3" d="M886.936,290.97c0.944-0.008,1.889-0.015,2.833-0.021
			c0.089,5.996,0.177,11.991,0.266,17.986c-0.134,8.331-0.268,16.662-0.401,24.994c-0.907,0.036-1.814,0.073-2.722,0.11
			c-1.021-3.004,2.444-7.488-2.981-9.04c0.327-9.342,0.655-18.684,0.982-28.026C885.587,294.972,886.262,292.971,886.936,290.97z"/>
		<path fill-rule="evenodd" clip-rule="evenodd" fill="#D4CFE3" d="M883.93,324.999c5.426,1.551,1.961,6.035,2.981,9.039
			c0.002,2.458,0.389,4.998-0.104,7.352c-0.48,2.289-1.864,4.387-2.852,6.57c-0.675-1.332-1.351-2.664-2.026-3.995
			c0.334-2.22,0.762-4.429,0.981-6.66C883.314,333.208,883.597,329.102,883.93,324.999z"/>
		<path fill-rule="evenodd" clip-rule="evenodd" fill="#D4CFE3" d="M1046.894,343.963c-1.343,5.239-2.305,10.616-4.125,15.684
			c-2.298,6.402-6.767,11.054-13.725,12.389c-4.851,0.931-9.807,1.82-14.72,1.843c-34.313,0.156-68.626,0.155-102.938,0.016
			c-6.636-0.026-13.39-0.819-18.778-5.238c-2.031-1.664-3.157-4.432-4.695-6.697c0.995,0,1.99-0.001,2.984-0.001
			c2.004,1.728,4.007,3.455,6.011,5.181c1.223,0.953,2.321,2.437,3.692,2.756c4.003,0.935,8.112,1.952,12.185,1.969
			c33.801,0.152,67.602,0.167,101.402-0.002c4.907-0.024,9.882-0.929,14.677-2.057c1.87-0.439,3.33-2.621,4.977-4.008
			c1.414-1.611,2.83-3.222,4.245-4.834c1.604-3.563,3.938-6.996,4.604-10.727c0.64-3.589-0.448-7.487-0.776-11.25
			c1.002-6.331,2.006-12.663,3.009-18.995c0.324,5.965,0.593,11.933,1.003,17.891
			C1046.064,339.923,1046.561,341.937,1046.894,343.963z"/>
		<path fill-rule="evenodd" clip-rule="evenodd" fill="#F3D1C3" d="M1044.921,319.992c-1.003,6.332-2.007,12.664-3.009,18.995
			c-0.905-0.043-1.81-0.086-2.715-0.129c-0.143-11.259-0.286-22.519-0.429-33.779c0.107-3.381,0.215-6.764,0.323-10.146
			c1.925,1.681,3.849,3.36,5.773,5.041C1044.884,306.646,1044.902,313.32,1044.921,319.992z"/>
		<path fill-rule="evenodd" clip-rule="evenodd" fill="#C8C2DE" d="M890.896,361.958c-0.994,0-1.989,0.001-2.984,0.001
			c-3.203-4.134-4.651-8.765-3.957-14c0.987-2.183,2.371-4.281,2.852-6.57c0.493-2.354,0.106-4.894,0.104-7.352
			c0.907-0.036,1.814-0.073,2.722-0.109c0.145,1.107,0.288,2.214,0.432,3.321C890.342,345.485,890.619,353.722,890.896,361.958z"/>
		<path fill-rule="evenodd" clip-rule="evenodd" fill="#E8710A" d="M1039.092,294.933c-0.108,3.381-0.216,6.764-0.323,10.145
			c-1.889-0.033-3.777-0.064-5.665-0.097c-0.07-2.006-0.141-4.012-0.211-6.018c0.173-7.839-0.387-9.037-5.16-9.036
			c-21.289,0.002-42.577,0.136-63.866,0.222c-1.099-0.119-2.196-0.238-3.599-0.391c0.994-2.761,1.9-5.28,2.807-7.799
			c1.896,0.336,3.792,0.672,5.688,1.009c1.729,0.297,3.454,0.844,5.184,0.853c17.247,0.088,34.495,0.072,51.742,0.117
			C1034.668,283.962,1037.075,285.967,1039.092,294.933z"/>
		<path fill-rule="evenodd" clip-rule="evenodd" fill="#FA7A03" d="M968.763,282.969c-1.896-0.337-3.793-0.673-5.688-1.009
			c-1.407-1.015-2.804-2.896-4.224-2.912c-16.959-0.206-33.922-0.208-50.882-0.005c-1.42,0.017-2.817,1.9-4.226,2.917
			c-1.894,0.002-3.787,0.005-5.681,0.007c0-5.679,2.691-8.926,8.095-8.963c18.115-0.122,36.23-0.119,54.346-0.01
			C966.218,273.028,968.891,276.493,968.763,282.969z"/>
		<path fill-rule="evenodd" clip-rule="evenodd" fill="#E8710A" d="M898.063,281.966c1.894-0.002,3.787-0.005,5.681-0.007
			c0.326,2.548,0.652,5.097,0.978,7.646c-8.876,0.622-8.879,0.622-8.826,9.73c0.013,2.159,0.055,4.318,0.083,6.477
			c-0.075,1.069-0.149,2.14-0.225,3.209c-1.905-0.029-3.813-0.058-5.719-0.086c-0.089-5.996-0.177-11.991-0.266-17.986
			C892.533,287.954,895.297,284.96,898.063,281.966z"/>
		<path fill-rule="evenodd" clip-rule="evenodd" fill="#8A3E30" d="M890.034,308.935c1.906,0.028,3.813,0.057,5.72,0.086
			c0.078,6.302,0.154,12.604,0.231,18.906c-0.102,3.068-0.204,6.135-0.307,9.203c-1.871,0.04-3.742,0.08-5.614,0.12
			c-0.144-1.107-0.287-2.213-0.432-3.321C889.767,325.596,889.9,317.266,890.034,308.935z"/>
		<path fill-rule="evenodd" clip-rule="evenodd" fill="#2E0D57" d="M890.064,337.249c1.872-0.04,3.743-0.08,5.615-0.121
			c0.054,0.642,0.106,1.285,0.16,1.929c0.032,3.324,0.065,6.647,0.098,9.971c-0.028,0.997-0.078,1.994-0.084,2.992
			c-0.049,9.008-0.047,8.977,9.062,8.972c38.094-0.018,76.188-0.006,114.281-0.025c14.735-0.008,14.007,2.031,13.69-13.944
			c0.073-2.008,0.147-4.015,0.221-6.024c1.891,0.038,3.781,0.076,5.672,0.113c-0.231,6.618-0.463,13.235-0.694,19.851
			c-1.415,1.612-2.831,3.223-4.245,4.834c-2.639,0.447-5.278,0.896-7.916,1.343c-10.458-0.055-20.916-0.163-31.372-0.154
			c-30.55,0.026-61.101,0.1-91.651,0.154c-1.997,0-3.995-0.001-5.993-0.001c-2.004-1.727-4.007-3.454-6.011-5.181
			C890.619,353.722,890.342,345.485,890.064,337.249z"/>
		<path fill-rule="evenodd" clip-rule="evenodd" fill="#C8C2DE" d="M896.907,367.139c1.998,0,3.996,0.001,5.993,0.001
			c3.459,0.934,6.914,2.661,10.378,2.681c34.089,0.203,68.178,0.203,102.267,0c3.464-0.021,6.919-1.747,10.379-2.681
			c2.638-0.447,5.277-0.896,7.916-1.343c-1.646,1.388-3.106,3.569-4.977,4.008c-4.795,1.128-9.77,2.033-14.677,2.057
			c-33.801,0.169-67.602,0.154-101.402,0.002c-4.072-0.017-8.182-1.035-12.185-1.969
			C899.229,369.576,898.13,368.092,896.907,367.139z"/>
		<path fill-rule="evenodd" clip-rule="evenodd" fill="#C8C2DE" d="M1038.085,360.963c0.231-6.616,0.463-13.233,0.694-19.852
			c0.14-0.751,0.278-1.502,0.418-2.253c0.905,0.043,1.81,0.086,2.715,0.129c0.328,3.762,1.416,7.66,0.776,11.25
			C1042.023,353.967,1039.689,357.4,1038.085,360.963z"/>
		<path fill-rule="evenodd" clip-rule="evenodd" fill="#8A3E30" d="M1039.197,338.857c-0.14,0.751-0.278,1.502-0.418,2.253
			c-1.891-0.036-3.781-0.074-5.673-0.111c-0.092-4.03-0.184-8.06-0.275-12.09c0.007-4.655,0.014-9.311,0.021-13.967
			c0.084-3.321,0.167-6.641,0.251-9.961c1.888,0.032,3.776,0.063,5.665,0.097C1038.911,316.339,1039.055,327.598,1039.197,338.857z"
			/>
		<path fill-rule="evenodd" clip-rule="evenodd" fill="#FB8F56" d="M1033.104,304.981c-0.084,3.321-0.167,6.641-0.251,9.961
			c-2.315-1.998-4.631-3.996-6.946-5.993c-2.574-5.08-7.461-4.924-11.989-4.937c-33.444-0.096-66.888-0.134-100.331,0.079
			c-3.232,0.021-6.451,1.875-9.677,2.877c-0.674-0.348-1.349-0.696-2.021-1.045c2.693-2.931,4.893-6.893,8.226-8.49
			c3.054-1.465,7.332-0.473,11.068-0.395c12.518,0.264,25.21,2.019,37.499,0.497c11.331-1.404,22.418-0.342,33.582-0.388
			c13.54-0.057,27.086,1.152,40.63,1.814C1032.963,300.969,1033.033,302.975,1033.104,304.981z"/>
		<path fill-rule="evenodd" clip-rule="evenodd" fill="#F9B365" d="M1032.893,298.963c-13.544-0.662-27.09-1.871-40.63-1.814
			c-11.164,0.046-22.251-1.017-33.582,0.388c-12.289,1.522-24.981-0.233-37.499-0.497c-3.736-0.078-8.015-1.07-11.068,0.395
			c-3.333,1.597-5.532,5.559-8.226,8.491c-1.97-0.037-3.94-0.075-5.91-0.113c-0.028-2.159-0.07-4.317-0.083-6.477
			c-0.053-9.108-0.05-9.108,8.828-9.728c1.189,1.089,2.253,2.876,3.594,3.117c2.811,0.504,5.768,0.215,8.665,0.213
			c14.663-0.007,29.327,0.025,43.988-0.16c0.977-0.013,1.932-1.712,2.896-2.627c21.289-0.086,42.577-0.22,63.866-0.222
			C1032.506,289.926,1033.065,291.124,1032.893,298.963z"/>
		<path fill-rule="evenodd" clip-rule="evenodd" fill="#FCD164" d="M963.866,290.149c-0.965,0.915-1.92,2.614-2.896,2.627
			c-14.661,0.186-29.325,0.153-43.988,0.16c-2.897,0.002-5.854,0.291-8.665-0.213c-1.341-0.24-2.404-2.027-3.594-3.117
			c-0.327-2.551-0.653-5.099-0.979-7.647c1.408-1.017,2.806-2.9,4.226-2.917c16.96-0.203,33.923-0.201,50.882,0.005
			c1.42,0.017,2.816,1.897,4.224,2.912c-0.906,2.519-1.813,5.038-2.807,7.799C961.67,289.912,962.768,290.03,963.866,290.149z"/>
		<path fill-rule="evenodd" clip-rule="evenodd" fill="#EA7773" d="M895.978,305.812c1.97,0.038,3.94,0.076,5.91,0.113
			c0.673,0.348,1.348,0.696,2.021,1.044c0.666,0.672,1.333,1.345,1.999,2.017c-0.337,3.322-0.674,6.644-1.011,9.965
			c0.004,2.004,0.008,4.006,0.012,6.01c-0.338,1.348-0.677,2.698-1.015,4.046c-2.636-0.36-5.272-0.72-7.909-1.081
			c-0.077-6.302-0.153-12.604-0.231-18.906C895.828,307.951,895.902,306.881,895.978,305.812z"/>
		<path fill-rule="evenodd" clip-rule="evenodd" fill="#BF5480" d="M895.985,327.926c2.637,0.36,5.273,0.721,7.909,1.081
			c1.035,1.638,1.713,4.071,3.187,4.732c2.303,1.033,5.143,1.16,7.757,1.166c33.037,0.067,66.073,0.164,99.108-0.094
			c4.463-0.035,10.384,0.374,10.986-6.786c2.633,0.295,5.266,0.59,7.898,0.884c0.092,4.03,0.184,8.061,0.275,12.09
			c-0.072,2.008-0.146,4.015-0.22,6.022c-0.986-0.083-1.973-0.165-2.959-0.247c0-3.106,0-6.212,0-10.137
			c-2.544,0.56-4.237,0.806-5.848,1.317c-2.885,0.917-5.714,2.854-8.575,2.871c-34.475,0.203-68.95,0.13-103.426,0.132
			c-2.726,0.001-5.452,0.021-8.179,0.032c-2.687-0.644-5.373-1.289-8.061-1.932c-0.054-0.644-0.106-1.287-0.16-1.929
			C895.781,334.061,895.884,330.994,895.985,327.926z"/>
		<path fill-rule="evenodd" clip-rule="evenodd" fill="#9E5697" d="M895.84,339.057c2.688,0.644,5.374,1.288,8.062,1.931
			c0.317,4.543,3.985,3.903,6.685,3.896c37.191-0.097,74.382-0.355,111.572-0.418c1.249-0.002,2.501,1.639,3.751,2.514
			c0.002,0.667,0.004,1.334,0.006,2c-15.945-0.008-31.891-0.021-47.836-0.023c-23.088-0.004-46.175-0.019-69.263,0.025
			c-2.106,0.004-5.055-0.994-4.912,2.941c-0.326,0.005-0.652,0.018-0.978,0.037c-2.329-0.978-4.659-1.954-6.989-2.932
			C895.905,345.704,895.872,342.38,895.84,339.057z"/>
		<path fill-rule="evenodd" clip-rule="evenodd" fill="#8B74BA" d="M895.938,349.028c2.33,0.978,4.66,1.954,6.988,2.932
			c1.615,1.594,2.998,4.123,4.893,4.593c4.119,1.022,8.498,1.33,12.772,1.345c29.094,0.104,58.188,0.1,87.282,0.004
			c4.278-0.014,8.576-0.55,12.826-1.126c2.564-0.348,4.935-1.343,4.212-4.801c0.335-0.998,0.669-1.996,1.004-2.994
			c-0.002-0.667-0.004-1.333-0.006-2c1.339-0.068,2.679-0.137,4.019-0.205c0.986,0.082,1.973,0.164,2.959,0.247
			c0.316,15.977,1.045,13.938-13.69,13.945c-38.094,0.02-76.188,0.008-114.281,0.025c-9.108,0.005-9.11,0.036-9.062-8.972
			C895.859,351.022,895.909,350.025,895.938,349.028z"/>
		<path fill-rule="evenodd" clip-rule="evenodd" fill="#B8B1D7" d="M1025.924,367.14c-3.46,0.934-6.915,2.661-10.379,2.681
			c-34.089,0.203-68.178,0.203-102.267,0c-3.464-0.021-6.919-1.747-10.378-2.681c30.551-0.055,61.102-0.128,91.651-0.154
			C1005.008,366.977,1015.466,367.085,1025.924,367.14z"/>
		<path fill-rule="evenodd" clip-rule="evenodd" fill="#EA7773" d="M1032.831,328.909c-2.633-0.294-5.266-0.589-7.898-0.885
			c-0.339-0.691-0.678-1.382-1.017-2.072c0.004-2.333,0.007-4.667,0.01-7.001c0.318-3.321,0.637-6.643,0.954-9.964
			c0.343-0.012,0.685-0.024,1.026-0.037c2.315,1.998,4.631,3.996,6.946,5.993C1032.845,319.598,1032.838,324.254,1032.831,328.909z"
			/>
		<path fill-rule="evenodd" clip-rule="evenodd" fill="#FC8154" d="M1025.906,308.949c-0.342,0.013-0.684,0.025-1.026,0.037
			c-9.718-0.672-19.428-1.618-29.158-1.938c-10.229-0.338-20.48-0.075-30.723-0.076c-16.144,0-32.29-0.118-48.433,0.091
			c-3.561,0.047-7.105,1.252-10.658,1.923c-0.666-0.672-1.333-1.345-1.999-2.017c3.226-1.003,6.444-2.856,9.677-2.877
			c33.443-0.213,66.887-0.175,100.331-0.079C1018.445,304.025,1023.332,303.87,1025.906,308.949z"/>
		<path fill-rule="evenodd" clip-rule="evenodd" fill="#FD6654" d="M905.908,308.985c3.553-0.671,7.098-1.876,10.658-1.923
			c16.143-0.209,32.289-0.091,48.433-0.091c10.242,0.001,20.493-0.262,30.723,0.076c9.73,0.32,19.44,1.267,29.158,1.938
			c-0.317,3.322-0.636,6.644-0.954,9.964c-0.675,0.335-1.35,0.669-2.023,1.003c-1.332-1.278-2.476-3.276-4.034-3.687
			c-3.317-0.873-6.849-1.231-10.296-1.254c-17.297-0.114-34.596-0.053-51.893-0.053c-11.809,0-23.639-0.403-35.416,0.203
			c-4.578,0.236-10.621-1.476-13.343,4.791c-0.674-0.334-1.349-0.668-2.023-1.003C905.234,315.629,905.571,312.307,905.908,308.985z
			"/>
		<path fill-rule="evenodd" clip-rule="evenodd" fill="#E45466" d="M1023.916,325.952c0.339,0.69,0.678,1.381,1.017,2.072
			c-0.603,7.161-6.523,6.752-10.986,6.787c-33.035,0.258-66.071,0.161-99.108,0.094c-2.614-0.006-5.454-0.133-7.757-1.166
			c-1.474-0.661-2.151-3.094-3.187-4.732c0.338-1.348,0.677-2.698,1.015-4.046c4.301,0.999,8.592,2.819,12.901,2.863
			c26.31,0.269,52.625,0.302,78.935,0.042C1005.808,327.776,1014.859,326.621,1023.916,325.952z"/>
		<path fill-rule="evenodd" clip-rule="evenodd" fill="#F1545C" d="M1023.916,325.952c-9.057,0.669-18.108,1.824-27.171,1.914
			c-26.31,0.26-52.625,0.227-78.935-0.042c-4.31-0.044-8.601-1.864-12.901-2.863c-0.004-2.004-0.008-4.006-0.012-6.01
			c0.675,0.335,1.35,0.669,2.023,1.003c4.152,1.334,8.293,3.78,12.459,3.826c30.06,0.332,60.127,0.331,90.187,0
			c4.125-0.045,8.225-2.491,12.336-3.826c0.674-0.334,1.349-0.668,2.023-1.003C1023.923,321.284,1023.92,323.618,1023.916,325.952z"
			/>
		<path fill-rule="evenodd" clip-rule="evenodd" fill="#AF548B" d="M1029.928,346.774c-1.34,0.068-2.68,0.137-4.019,0.205
			c-1.25-0.875-2.502-2.516-3.751-2.514c-37.19,0.063-74.381,0.321-111.572,0.418c-2.699,0.007-6.367,0.647-6.685-3.896
			c2.726-0.011,5.452-0.03,8.178-0.031c34.476-0.002,68.951,0.071,103.426-0.132c2.861-0.017,5.69-1.954,8.575-2.871
			c1.61-0.511,3.304-0.757,5.848-1.317C1029.928,340.563,1029.928,343.668,1029.928,346.774z"/>
		<path fill-rule="evenodd" clip-rule="evenodd" fill="#8864AF" d="M1024.911,351.974c0.723,3.458-1.647,4.453-4.212,4.801
			c-4.25,0.576-8.548,1.112-12.826,1.126c-29.094,0.096-58.188,0.1-87.282-0.004c-4.274-0.015-8.653-0.322-12.772-1.345
			c-1.895-0.47-3.277-2.999-4.893-4.593c0.326-0.02,0.652-0.032,0.979-0.037c2.613,0.344,5.226,0.982,7.839,0.987
			c35.107,0.066,70.214,0.065,105.321,0.003C1019.68,352.907,1022.295,352.301,1024.911,351.974z"/>
		<path fill-rule="evenodd" clip-rule="evenodd" fill="#905AA3" d="M1024.911,351.974c-2.616,0.327-5.231,0.933-7.847,0.938
			c-35.107,0.063-70.214,0.063-105.321-0.003c-2.613-0.005-5.226-0.643-7.839-0.987c-0.143-3.935,2.806-2.938,4.912-2.941
			c23.088-0.044,46.175-0.029,69.263-0.025c15.945,0.003,31.891,0.016,47.836,0.023
			C1025.58,349.978,1025.246,350.976,1024.911,351.974z"/>
		<path fill-rule="evenodd" clip-rule="evenodd" fill="#FC5754" d="M1021.902,319.954c-4.111,1.334-8.211,3.781-12.336,3.826
			c-30.06,0.331-60.127,0.332-90.187,0c-4.166-0.046-8.307-2.491-12.459-3.826c2.722-6.266,8.765-4.554,13.343-4.791
			c11.777-0.606,23.607-0.203,35.416-0.203c17.297,0,34.596-0.062,51.893,0.053c3.447,0.022,6.979,0.381,10.296,1.254
			C1019.427,316.678,1020.57,318.675,1021.902,319.954z"/>
	</g>
</g>
</svg>
