<?xml version="1.0" encoding="utf-8"?>
<!-- Generator: Adobe Illustrator 16.0.3, SVG Export Plug-In . SVG Version: 6.00 Build 0)  -->
<!DOCTYPE svg PUBLIC "-//W3C//DTD SVG 1.1//EN" "http://www.w3.org/Graphics/SVG/1.1/DTD/svg11.dtd">
<svg version="1.1" id="Capa_1" xmlns="http://www.w3.org/2000/svg" xmlns:xlink="http://www.w3.org/1999/xlink" x="0px" y="0px"
	 width="1224px" height="792px" viewBox="0 0 1224 792" enable-background="new 0 0 1224 792" xml:space="preserve">
<g>
	<g>
		<path fill-rule="evenodd" clip-rule="evenodd" fill="#FEFEFE" d="M322,106c194.642,0,389.284,0,583.927,0
			c0,194.643,0,389.284,0,583.927c-194.643,0-389.284,0-583.926,0C322,495.284,322,300.643,322,106z M433.145,340.019
			c-1.317,4.653-2.634,9.306-3.952,13.959c-0.939,4.338-1.879,8.676-2.818,13.013c-0.745,5.994-1.49,11.989-2.235,17.983
			c0.289,9.664,0.577,19.327,0.866,28.991c0.754,5.995,1.508,11.99,2.262,17.985c0.974,4.334,1.948,8.669,2.922,13.003
			c1.823,5.703,3.646,11.406,5.469,17.108c2.413,5.641,4.825,11.282,7.238,16.923c2.695,4.99,5.391,9.98,8.086,14.971
			c3.614,5.349,7.228,10.697,10.842,16.046c5.048,5.988,10.096,11.976,15.145,17.964c4.663,4.345,9.325,8.688,13.987,13.034
			c4.939,3.674,9.878,7.35,14.816,11.023c7.358,4.327,14.715,8.652,22.073,12.979c10.044,3.972,20.089,7.944,30.133,11.916
			c0.566,0.327,1.093,0.797,1.702,0.96c21.167,5.673,42.669,8.26,64.574,6.666c6.372-0.464,12.709-1.407,19.122-2.136
			c-1.238-5.08-3.841-5.857-7.983-5.218c-15.879,2.449-31.818,2.337-47.727,0.104c-7.53-1.058-15.038-2.271-22.556-3.414
			c-0.601-0.508-1.12-1.244-1.813-1.491c-9.028-3.215-18.082-6.359-27.127-9.523c-7.988-4.463-15.975-8.926-23.963-13.389
			c-4.953-3.566-9.907-7.131-14.859-10.696c-5.171-4.61-10.343-9.221-15.514-13.83c-4.656-5.317-9.313-10.637-13.969-15.954
			c-3.64-5.342-7.28-10.684-10.92-16.025c-2.97-5.367-5.94-10.736-8.911-16.104c-2.296-5.322-4.594-10.644-6.89-15.966
			c-1.761-5.635-3.522-11.27-5.283-16.906c-0.989-4.334-1.978-8.669-2.967-13.005c-0.753-5.684-1.506-11.367-2.26-17.052
			c-0.176-9.647-0.352-19.295-0.528-28.943c0.729-5.984,1.458-11.97,2.187-17.956c0.898-4.357,1.796-8.714,2.694-13.072
			c1.36-4.659,2.72-9.317,4.081-13.976c1.346-3.657,2.693-7.314,4.04-10.971c2.219-4.7,4.438-9.402,6.657-14.103
			c2.769-4.928,5.537-9.856,8.307-14.785c4.037-5.597,8.075-11.193,12.112-16.79c4.97-5.438,9.94-10.875,14.91-16.313
			c5.779-4.952,11.558-9.905,17.337-14.857c7.513-4.798,15.027-9.596,22.54-14.394c10.676-4.577,21.353-9.153,32.029-13.729
			c1.129-0.253,2.273-0.455,3.385-0.767c24.818-6.96,50.021-9.415,75.553-5.395c11.287,1.777,22.376,4.826,33.554,7.297
			c12.497,5.928,24.993,11.855,37.489,17.783c6.621,4.753,13.243,9.508,19.864,14.261c3.997,3.595,7.994,7.189,11.991,10.785
			c4.293,4.678,8.586,9.356,12.879,14.035c3.927,5.364,7.854,10.728,11.781,16.092c3.404,5.928,6.81,11.856,10.347,18.014
			c1.938-0.909,3.512-1.647,5.667-2.659c-3.507-5.826-6.778-11.262-10.05-16.699c-3.81-5.283-7.618-10.566-11.428-15.849
			c-4.396-4.972-8.794-9.944-13.19-14.917c-4.313-3.984-8.626-7.968-12.938-11.953c-6.507-4.782-13.012-9.564-19.518-14.346
			c-11.813-5.908-23.624-11.817-35.436-17.724c-16.125-6.745-33.058-10.079-50.373-11.43c-25.826-2.016-51.121,0.669-75.597,9.566
			c-10.061,4.477-20.121,8.955-30.18,13.432c-8.243,5.477-16.486,10.954-24.729,16.431c-5.655,5.001-11.309,10.003-16.964,15.006
			c-4.72,5.295-9.44,10.589-14.161,15.885c-4.059,5.664-8.117,11.33-12.176,16.994c-2.959,5.351-5.917,10.701-8.876,16.051
			c-2.139,4.62-4.277,9.239-6.416,13.858C436.03,331.873,434.587,335.946,433.145,340.019z"/>
		<path fill-rule="evenodd" clip-rule="evenodd" fill="#FEF708" d="M669.487,225.186c-11.178-2.471-22.267-5.52-33.554-7.297
			c-25.532-4.02-50.735-1.565-75.553,5.395c-1.112,0.313-2.256,0.514-3.385,0.767c-2.006-1.302-4.013-2.605-6.02-3.907
			c24.476-8.897,49.771-11.582,75.597-9.566c17.315,1.351,34.248,4.685,50.373,11.43
			C674.459,223.068,671.974,224.126,669.487,225.186z"/>
		<path fill-rule="evenodd" clip-rule="evenodd" fill="#1609B1" d="M565.108,573.88c7.518,1.144,15.026,2.356,22.556,3.414
			c15.909,2.233,31.848,2.346,47.727-0.104c4.143-0.64,6.745,0.138,7.983,5.218c-6.413,0.729-12.75,1.672-19.122,2.136
			c-21.905,1.594-43.407-0.993-64.574-6.666c-0.609-0.163-1.136-0.633-1.702-0.96C560.354,575.904,562.731,574.893,565.108,573.88z"
			/>
		<path fill-rule="evenodd" clip-rule="evenodd" fill="#FEE80B" d="M669.487,225.186c2.486-1.06,4.972-2.118,7.459-3.177
			c11.812,5.907,23.623,11.816,35.436,17.724c-1.803,1.079-3.604,2.157-5.405,3.236C694.48,237.041,681.984,231.114,669.487,225.186
			z"/>
		<path fill-rule="evenodd" clip-rule="evenodd" fill="#FEED0C" d="M550.976,220.145c2.006,1.302,4.013,2.604,6.02,3.907
			c-10.676,4.576-21.353,9.152-32.029,13.729c-1.39-1.401-2.781-2.803-4.171-4.204C530.855,229.1,540.916,224.622,550.976,220.145z"
			/>
		<path fill-rule="evenodd" clip-rule="evenodd" fill="#200AAB" d="M565.108,573.88c-2.377,1.013-4.754,2.024-7.131,3.038
			c-10.044-3.972-20.089-7.944-30.133-11.916c2.774-0.712,5.549-1.424,8.324-2.137c9.046,3.164,18.099,6.309,27.127,9.523
			C563.988,572.636,564.508,573.372,565.108,573.88z"/>
		<path fill-rule="evenodd" clip-rule="evenodd" fill="#FEDC09" d="M520.796,233.577c1.39,1.401,2.781,2.802,4.171,4.204
			c-7.513,4.797-15.027,9.595-22.541,14.394c-2.12-0.723-4.24-1.445-6.36-2.167C504.31,244.53,512.553,239.054,520.796,233.577z"/>
		<path fill-rule="evenodd" clip-rule="evenodd" fill="#2C0BA3" d="M536.168,562.865c-2.775,0.713-5.55,1.425-8.324,2.137
			c-7.357-4.327-14.715-8.652-22.073-12.979c2.145-0.848,4.289-1.697,6.434-2.546C520.193,553.939,528.18,558.402,536.168,562.865z"
			/>
		<path fill-rule="evenodd" clip-rule="evenodd" fill="#FB0606" d="M430.103,384.995c0.176,9.648,0.352,19.296,0.528,28.943
			c-1.875,0.009-3.751,0.018-5.626,0.026c-0.289-9.664-0.577-19.328-0.866-28.991C426.127,384.981,428.115,384.988,430.103,384.995z
			"/>
		<path fill-rule="evenodd" clip-rule="evenodd" fill="#FED508" d="M706.977,242.969c1.802-1.079,3.603-2.157,5.405-3.236
			c6.506,4.782,13.011,9.564,19.518,14.346c-1.687,1.05-3.373,2.101-5.059,3.151C720.22,252.477,713.598,247.722,706.977,242.969z"
			/>
		<path fill-rule="evenodd" clip-rule="evenodd" fill="#FEC80A" d="M496.066,250.007c2.12,0.721,4.24,1.444,6.36,2.167
			c-5.778,4.953-11.558,9.905-17.336,14.857c-1.996-0.673-3.992-1.345-5.988-2.018C484.757,260.011,490.412,255.008,496.066,250.007
			z"/>
		<path fill-rule="evenodd" clip-rule="evenodd" fill="#600A7C" d="M476.968,527.965c-5.048-5.988-10.097-11.976-15.145-17.964
			c2.013-0.335,4.026-0.67,6.04-1.005c4.656,5.317,9.313,10.637,13.969,15.954C480.21,525.955,478.589,526.96,476.968,527.965z"/>
		<path fill-rule="evenodd" clip-rule="evenodd" fill="#FEB20A" d="M479.102,265.013c1.996,0.673,3.992,1.345,5.988,2.018
			c-4.97,5.437-9.94,10.875-14.91,16.313c-1.747-0.815-3.493-1.631-5.239-2.446C469.662,275.603,474.382,270.309,479.102,265.013z"
			/>
		<path fill-rule="evenodd" clip-rule="evenodd" fill="#FE800B" d="M769.456,296.797c3.271,5.437,6.543,10.873,10.05,16.699
			c-2.155,1.012-3.729,1.75-5.667,2.659c-3.537-6.158-6.942-12.085-10.347-18.014C765.48,297.693,767.469,297.245,769.456,296.797z"
			/>
		<path fill-rule="evenodd" clip-rule="evenodd" fill="#FE9809" d="M464.941,280.898c1.746,0.815,3.492,1.63,5.239,2.446
			c-4.038,5.597-8.075,11.193-12.113,16.79c-1.767-0.747-3.534-1.494-5.302-2.242C456.824,292.228,460.882,286.562,464.941,280.898z
			"/>
		<path fill-rule="evenodd" clip-rule="evenodd" fill="#4A098B" d="M476.968,527.965c1.621-1.005,3.243-2.01,4.864-3.015
			c5.171,4.609,10.343,9.22,15.514,13.83c-2.13,0.739-4.261,1.479-6.391,2.219C486.292,536.653,481.63,532.31,476.968,527.965z"/>
		<path fill-rule="evenodd" clip-rule="evenodd" fill="#78096A" d="M467.863,508.996c-2.013,0.335-4.026,0.67-6.04,1.005
			c-3.614-5.349-7.228-10.697-10.842-16.046c1.987-0.328,3.974-0.656,5.961-0.984C460.583,498.313,464.223,503.654,467.863,508.996z
			"/>
		<path fill-rule="evenodd" clip-rule="evenodd" fill="#390997" d="M490.955,540.999c2.13-0.74,4.261-1.479,6.391-2.219
			c4.953,3.565,9.906,7.13,14.859,10.696c-2.145,0.849-4.289,1.698-6.434,2.546C500.833,548.349,495.894,544.673,490.955,540.999z"
			/>
		<path fill-rule="evenodd" clip-rule="evenodd" fill="#FE9809" d="M769.456,296.797c-1.987,0.448-3.976,0.896-5.964,1.344
			c-3.928-5.364-7.854-10.728-11.781-16.092c2.105-0.367,4.212-0.734,6.317-1.101C761.838,286.231,765.646,291.515,769.456,296.797z
			"/>
		<path fill-rule="evenodd" clip-rule="evenodd" fill="#FEB20A" d="M758.028,280.949c-2.105,0.367-4.212,0.734-6.317,1.101
			c-4.293-4.679-8.586-9.357-12.879-14.035c2.002-0.661,4.004-1.322,6.006-1.982C749.234,271.004,753.632,275.977,758.028,280.949z"
			/>
		<path fill-rule="evenodd" clip-rule="evenodd" fill="#AA0947" d="M442.895,478.984c-2.413-5.641-4.825-11.282-7.238-16.922
			c1.828-0.388,3.656-0.774,5.484-1.161c2.296,5.322,4.594,10.644,6.89,15.966C446.319,477.572,444.607,478.278,442.895,478.984z"/>
		<path fill-rule="evenodd" clip-rule="evenodd" fill="#C40C36" d="M441.141,460.901c-1.828,0.387-3.656,0.773-5.484,1.161
			c-1.823-5.703-3.646-11.406-5.469-17.109c1.89-0.319,3.78-0.639,5.669-0.957C437.619,449.632,439.38,455.267,441.141,460.901z"/>
		<path fill-rule="evenodd" clip-rule="evenodd" fill="#FE7E09" d="M452.765,297.892c1.768,0.748,3.535,1.495,5.302,2.242
			c-2.769,4.929-5.538,9.857-8.306,14.785c-1.958-0.325-3.915-0.651-5.872-0.977C446.848,308.593,449.806,303.243,452.765,297.892z"
			/>
		<path fill-rule="evenodd" clip-rule="evenodd" fill="#920B5A" d="M442.895,478.984c1.712-0.706,3.424-1.412,5.136-2.117
			c2.971,5.367,5.941,10.736,8.911,16.104c-1.987,0.328-3.974,0.656-5.961,0.984C448.286,488.965,445.59,483.975,442.895,478.984z"
			/>
		<path fill-rule="evenodd" clip-rule="evenodd" fill="#FE1A06" d="M430.103,384.995c-1.988-0.007-3.976-0.014-5.964-0.021
			c0.745-5.994,1.49-11.989,2.235-17.983c1.972,0.017,3.944,0.033,5.916,0.049C431.561,373.025,430.832,379.011,430.103,384.995z"/>
		<path fill-rule="evenodd" clip-rule="evenodd" fill="#E80A1A" d="M425.004,413.965c1.875-0.009,3.751-0.018,5.626-0.026
			c0.753,5.685,1.506,11.368,2.26,17.052c-1.875,0.32-3.75,0.64-5.625,0.96C426.512,425.955,425.758,419.96,425.004,413.965z"/>
		<path fill-rule="evenodd" clip-rule="evenodd" fill="#FEC40A" d="M744.838,266.032c-2.002,0.66-4.004,1.321-6.006,1.982
			c-3.997-3.595-7.994-7.189-11.991-10.785c1.686-1.05,3.372-2.101,5.059-3.151C736.212,258.064,740.525,262.048,744.838,266.032z"
			/>
		<path fill-rule="evenodd" clip-rule="evenodd" fill="#FE670A" d="M443.889,313.942c1.958,0.325,3.915,0.651,5.872,0.977
			c-2.219,4.701-4.438,9.402-6.657,14.103c-1.877-0.407-3.754-0.814-5.632-1.221C439.611,323.182,441.75,318.562,443.889,313.942z"
			/>
		<path fill-rule="evenodd" clip-rule="evenodd" fill="#FE4009" d="M439.064,339.992c-1.36,4.658-2.721,9.317-4.081,13.976
			c-1.93,0.004-3.86,0.007-5.791,0.01c1.318-4.653,2.635-9.306,3.952-13.959C435.118,340.01,437.09,340.001,439.064,339.992z"/>
		<path fill-rule="evenodd" clip-rule="evenodd" fill="#FE2D08" d="M429.192,353.978c1.931-0.003,3.861-0.006,5.791-0.01
			c-0.898,4.358-1.796,8.715-2.694,13.072c-1.972-0.016-3.944-0.032-5.916-0.049C427.313,362.653,428.253,358.316,429.192,353.978z"
			/>
		<path fill-rule="evenodd" clip-rule="evenodd" fill="#D70925" d="M427.266,431.95c1.875-0.32,3.75-0.64,5.625-0.96
			c0.989,4.336,1.979,8.671,2.967,13.005c-1.89,0.319-3.78,0.639-5.669,0.958C429.214,440.619,428.24,436.284,427.266,431.95z"/>
		<path fill-rule="evenodd" clip-rule="evenodd" fill="#FE540A" d="M439.064,339.992c-1.974,0.009-3.946,0.018-5.919,0.026
			c1.443-4.073,2.885-8.146,4.328-12.218c1.877,0.407,3.754,0.814,5.632,1.221C441.757,332.678,440.41,336.335,439.064,339.992z"/>
	</g>
</g>
</svg>
