<?xml version="1.0" encoding="utf-8"?>
<!-- Generator: Adobe Illustrator 16.0.3, SVG Export Plug-In . SVG Version: 6.00 Build 0)  -->
<!DOCTYPE svg PUBLIC "-//W3C//DTD SVG 1.1//EN" "http://www.w3.org/Graphics/SVG/1.1/DTD/svg11.dtd">
<svg version="1.1" id="Capa_1" xmlns="http://www.w3.org/2000/svg" xmlns:xlink="http://www.w3.org/1999/xlink" x="0px" y="0px"
	 width="1224px" height="792px" viewBox="0 0 1224 792" enable-background="new 0 0 1224 792" xml:space="preserve">
<g>
	<g>
		<path fill-rule="evenodd" clip-rule="evenodd" fill="#FEFEFE" d="M905.927,689.927c-194.643,0-389.285,0-583.927,0
			c0-194.643,0-389.284,0-583.927c194.642,0,389.284,0,583.927,0C905.927,300.643,905.927,495.284,905.927,689.927z
			 M734.872,451.936c-1.487,2.954-2.974,5.909-4.461,8.862c-1.523,2.704-3.047,5.407-4.571,8.109
			c-2.051,2.982-4.103,5.964-6.153,8.946c-1.883,2.38-3.766,4.76-5.648,7.141c-2.42,2.632-4.841,5.263-7.262,7.895
			c-2.603,2.38-5.206,4.76-7.809,7.14c-4.349,3.284-8.696,6.566-13.045,9.85c-8.321,4.355-16.644,8.711-24.966,13.066
			c-17.402,6.092-35.221,9.606-53.762,8.945c-14.416-0.514-28.281-3.75-41.956-8.05c-8.7-4.41-17.398-8.821-26.098-13.231
			c-4.331-2.91-8.662-5.819-12.992-8.729c-3.622-3.803-7.245-7.605-11.122-11.678c-1.452,2.271-2.39,3.74-3.526,5.519
			c2.912,2.554,5.607,4.919,8.302,7.284c4.305,3.349,8.609,6.699,12.914,10.049c8.421,4.621,16.842,9.242,25.263,13.864
			c13.734,6.355,28.294,9.511,43.278,10.617c22.381,1.653,44.057-1.427,64.688-10.638c8.029-4.595,16.058-9.188,24.086-13.781
			c4.694-3.369,9.388-6.737,14.082-10.104c2.679-2.536,5.358-5.071,8.038-7.605c2.261-2.506,4.521-5.012,6.782-7.516
			c2.031-2.601,4.063-5.201,6.093-7.8c2.054-3.347,4.106-6.691,6.159-10.038c1.872-3.042,3.745-6.083,5.618-9.125
			c1.236-2.597,2.473-5.195,3.709-7.793c1.138-3.062,2.275-6.125,3.412-9.188c1.3-4.341,2.601-8.683,3.901-13.025
			c1.021-5.987,2.043-11.975,3.065-17.963c0.039-9.325,0.077-18.651,0.116-27.978c-0.466-4.002-0.932-8.005-1.397-12.008
			c-1.01-4.328-2.019-8.656-3.028-12.985c-1.597-4.659-3.192-9.318-4.789-13.978c-2-4.329-4.002-8.658-6.003-12.988
			c-2.29-3.68-4.581-7.36-6.871-11.042c-3.331-4.647-6.662-9.293-9.993-13.94c-4.229-4.401-8.456-8.801-12.685-13.202
			c-5.061-4.022-10.122-8.043-15.184-12.064c-6.335-3.664-12.671-7.326-19.007-10.989c-9.253-3.667-18.506-7.334-27.76-11
			c-0.576,0.666-1.153,1.332-1.73,1.998c1.136,1.875,1.851,4.779,3.481,5.449c7.159,2.939,14.583,5.233,21.911,7.76
			c5.977,3.339,11.953,6.68,17.931,10.019c5.059,3.914,10.117,7.827,15.177,11.741c4.319,4.397,8.639,8.795,12.958,13.193
			c3.036,3.994,6.071,7.987,9.106,11.981c2.269,3.684,4.537,7.368,6.806,11.052c2.044,4.321,4.087,8.642,6.131,12.961
			c1.558,4.366,3.116,8.732,4.674,13.098c1.056,4.314,2.111,8.629,3.167,12.944c0.528,4.024,1.058,8.049,1.586,12.073
			c-0.092,9.297-0.184,18.594-0.275,27.89c-1.058,6.011-2.116,12.021-3.175,18.031c-1.258,3.993-2.515,7.985-3.771,11.978
			C737.134,445.946,736.003,448.941,734.872,451.936z"/>
		<path fill-rule="evenodd" clip-rule="evenodd" fill="#1909AF" d="M665.944,526.896c-20.631,9.211-42.307,12.291-64.688,10.638
			c-14.984-1.106-29.543-4.262-43.278-10.617c2.42-1.025,4.84-2.052,7.26-3.077c13.675,4.3,27.54,7.536,41.956,8.05
			c18.542,0.661,36.36-2.854,53.762-8.945C662.619,524.262,664.281,525.579,665.944,526.896z"/>
		<path fill-rule="evenodd" clip-rule="evenodd" fill="#FEF00C" d="M667.952,275.991c-7.328-2.527-14.752-4.821-21.911-7.76
			c-1.631-0.67-2.346-3.574-3.481-5.449c0.577-0.666,1.154-1.332,1.73-1.998c9.254,3.667,18.507,7.334,27.76,11
			C670.684,273.188,669.318,274.59,667.952,275.991z"/>
		<path fill-rule="evenodd" clip-rule="evenodd" fill="#2B0AA3" d="M665.944,526.896c-1.663-1.317-3.325-2.635-4.987-3.952
			c8.322-4.355,16.645-8.711,24.967-13.066c1.368,1.079,2.737,2.158,4.106,3.237C682.002,517.709,673.974,522.302,665.944,526.896z"
			/>
		<path fill-rule="evenodd" clip-rule="evenodd" fill="#2C0CA4" d="M565.239,523.84c-2.42,1.025-4.84,2.052-7.26,3.077
			c-8.421-4.622-16.842-9.243-25.263-13.864c2.142-0.814,4.283-1.63,6.425-2.444C547.84,515.019,556.539,519.43,565.239,523.84z"/>
		<path fill-rule="evenodd" clip-rule="evenodd" fill="#FA0606" d="M751.007,384.98c-0.039,9.326-0.077,18.652-0.116,27.978
			c-1.893-0.005-3.785-0.01-5.679-0.016c0.092-9.296,0.184-18.593,0.276-27.89C747.328,385.029,749.167,385.005,751.007,384.98z"/>
		<path fill-rule="evenodd" clip-rule="evenodd" fill="#FEE20C" d="M667.952,275.991c1.366-1.401,2.731-2.803,4.098-4.206
			c6.336,3.663,12.672,7.325,19.007,10.989c-1.725,1.078-3.449,2.157-5.174,3.236C679.905,282.671,673.929,279.331,667.952,275.991z
			"/>
		<path fill-rule="evenodd" clip-rule="evenodd" fill="#FEB605" d="M706.24,294.838c4.229,4.401,8.456,8.801,12.685,13.202
			c-1.636,0.968-3.271,1.935-4.907,2.904c-4.319-4.398-8.639-8.796-12.959-13.193C702.786,296.78,704.514,295.809,706.24,294.838z"
			/>
		<path fill-rule="evenodd" clip-rule="evenodd" fill="#FED00B" d="M706.24,294.838c-1.727,0.971-3.454,1.941-5.182,2.913
			c-5.059-3.914-10.117-7.827-15.176-11.741c1.725-1.079,3.449-2.158,5.174-3.236C696.118,286.795,701.18,290.816,706.24,294.838z"
			/>
		<path fill-rule="evenodd" clip-rule="evenodd" fill="#E10C21" d="M745.212,412.942c1.894,0.006,3.786,0.011,5.679,0.016
			c-1.022,5.988-2.044,11.976-3.065,17.963c-1.93,0.018-3.859,0.035-5.788,0.053C743.096,424.964,744.154,418.953,745.212,412.942z"
			/>
		<path fill-rule="evenodd" clip-rule="evenodd" fill="#3C0996" d="M539.141,510.608c-2.142,0.814-4.283,1.63-6.425,2.444
			c-4.304-3.35-8.609-6.7-12.914-10.049c2.115-0.375,4.231-0.75,6.347-1.125C530.479,504.789,534.811,507.698,539.141,510.608z"/>
		<path fill-rule="evenodd" clip-rule="evenodd" fill="#3E0B97" d="M690.03,513.115c-1.369-1.079-2.738-2.158-4.106-3.237
			c4.348-3.283,8.695-6.565,13.044-9.85c1.715,0.994,3.43,1.988,5.145,2.982C699.418,506.378,694.725,509.746,690.03,513.115z"/>
		<path fill-rule="evenodd" clip-rule="evenodd" fill="#FE9C09" d="M714.018,310.944c1.636-0.969,3.271-1.936,4.907-2.904
			c3.331,4.647,6.662,9.293,9.993,13.94c-1.932,0.315-3.862,0.63-5.794,0.944C720.089,318.931,717.054,314.938,714.018,310.944z"/>
		<path fill-rule="evenodd" clip-rule="evenodd" fill="#4E0B8A" d="M526.149,501.879c-2.115,0.375-4.231,0.75-6.347,1.125
			c-2.695-2.365-5.39-4.73-8.302-7.284c1.137-1.778,2.075-3.247,3.526-5.519C518.904,494.273,522.527,498.076,526.149,501.879z"/>
		<path fill-rule="evenodd" clip-rule="evenodd" fill="#FE6A0B" d="M735.789,333.022c2.001,4.33,4.003,8.659,6.003,12.988
			c-1.91,0.31-3.82,0.619-5.731,0.929c-2.044-4.32-4.087-8.641-6.131-12.961C731.883,333.659,733.836,333.34,735.789,333.022z"/>
		<path fill-rule="evenodd" clip-rule="evenodd" fill="#FE4F0A" d="M736.061,346.938c1.911-0.31,3.821-0.619,5.731-0.929
			c1.597,4.66,3.192,9.318,4.789,13.978c-1.948,0.016-3.897,0.032-5.847,0.049C739.177,355.671,737.618,351.304,736.061,346.938z"/>
		<path fill-rule="evenodd" clip-rule="evenodd" fill="#C80C33" d="M742.037,430.974c1.929-0.018,3.858-0.035,5.788-0.053
			c-1.301,4.343-2.602,8.685-3.901,13.025c-1.886-0.331-3.772-0.663-5.658-0.995C739.522,438.959,740.779,434.967,742.037,430.974z"
			/>
		<path fill-rule="evenodd" clip-rule="evenodd" fill="#FE840C" d="M735.789,333.022c-1.953,0.318-3.906,0.637-5.859,0.955
			c-2.269-3.684-4.537-7.368-6.806-11.052c1.932-0.314,3.862-0.629,5.794-0.944C731.208,325.662,733.499,329.342,735.789,333.022z"
			/>
		<path fill-rule="evenodd" clip-rule="evenodd" fill="#FE3307" d="M740.734,360.036c1.949-0.017,3.898-0.033,5.847-0.049
			c1.01,4.329,2.019,8.657,3.028,12.985c-1.902,0.003-3.806,0.005-5.708,0.008C742.846,368.665,741.79,364.35,740.734,360.036z"/>
		<path fill-rule="evenodd" clip-rule="evenodd" fill="#4A0688" d="M704.112,503.011c-1.715-0.994-3.43-1.988-5.145-2.982
			c2.603-2.38,5.206-4.76,7.809-7.14c1.792,0.839,3.583,1.678,5.374,2.517C709.471,497.939,706.791,500.475,704.112,503.011z"/>
		<path fill-rule="evenodd" clip-rule="evenodd" fill="#FE210A" d="M743.901,372.98c1.902-0.003,3.806-0.005,5.708-0.008
			c0.466,4.003,0.932,8.006,1.397,12.008c-1.84,0.024-3.679,0.049-5.519,0.072C744.959,381.029,744.43,377.004,743.901,372.98z"/>
		<path fill-rule="evenodd" clip-rule="evenodd" fill="#7D0B69" d="M731.185,470.052c-2.053,3.347-4.105,6.691-6.159,10.038
			c-1.779-0.746-3.56-1.491-5.339-2.236c2.051-2.982,4.103-5.964,6.153-8.946C727.622,469.289,729.403,469.67,731.185,470.052z"/>
		<path fill-rule="evenodd" clip-rule="evenodd" fill="#59057D" d="M712.15,495.405c-1.791-0.839-3.582-1.678-5.374-2.517
			c2.421-2.632,4.842-5.263,7.262-7.895c1.632,0.965,3.263,1.931,4.895,2.896C716.672,490.394,714.411,492.899,712.15,495.405z"/>
		<path fill-rule="evenodd" clip-rule="evenodd" fill="#8F0B5B" d="M731.185,470.052c-1.781-0.382-3.563-0.763-5.345-1.145
			c1.524-2.702,3.048-5.405,4.572-8.109c2.13,0.043,4.26,0.086,6.391,0.129C734.93,463.969,733.057,467.01,731.185,470.052z"/>
		<path fill-rule="evenodd" clip-rule="evenodd" fill="#B30B42" d="M738.266,442.951c1.886,0.332,3.772,0.664,5.658,0.995
			c-1.137,3.063-2.274,6.126-3.412,9.188c-1.88-0.399-3.76-0.799-5.64-1.198C736.003,448.941,737.134,445.946,738.266,442.951z"/>
		<path fill-rule="evenodd" clip-rule="evenodd" fill="#6B0873" d="M718.933,487.89c-1.632-0.965-3.263-1.931-4.895-2.896
			c1.883-2.381,3.766-4.761,5.648-7.141c1.779,0.745,3.56,1.49,5.339,2.236C722.995,482.688,720.964,485.289,718.933,487.89z"/>
		<path fill-rule="evenodd" clip-rule="evenodd" fill="#A0094D" d="M734.872,451.936c1.88,0.399,3.76,0.799,5.64,1.198
			c-1.236,2.598-2.473,5.196-3.709,7.793c-2.131-0.043-4.261-0.086-6.391-0.129C731.898,457.845,733.385,454.89,734.872,451.936z"/>
	</g>
</g>
</svg>
