<?xml version="1.0" encoding="utf-8"?>
<!-- Generator: Adobe Illustrator 16.0.3, SVG Export Plug-In . SVG Version: 6.00 Build 0)  -->
<!DOCTYPE svg PUBLIC "-//W3C//DTD SVG 1.1//EN" "http://www.w3.org/Graphics/SVG/1.1/DTD/svg11.dtd">
<svg version="1.1" id="Capa_1" xmlns="http://www.w3.org/2000/svg" xmlns:xlink="http://www.w3.org/1999/xlink" x="0px" y="0px"
	 width="1224px" height="792px" viewBox="0 0 1224 792" enable-background="new 0 0 1224 792" xml:space="preserve">
<g>
	<g>
		<path fill-rule="evenodd" clip-rule="evenodd" fill="#FEFEFE" d="M322,689.927c0-194.643,0-389.284,0-583.927
			c194.642,0,389.284,0,583.927,0c0,194.643,0,389.284,0,583.927C711.284,689.927,516.642,689.927,322,689.927z M352.951,322.968
			c-1.603,5.67-3.205,11.34-4.808,17.012c-1.325,8.333-2.649,16.667-3.974,25.001c-0.624,14.324-1.248,28.649-1.871,42.973
			c0.649,7.999,1.298,15.998,1.947,23.997c1.281,7.325,2.562,14.65,3.843,21.976c1.37,5.674,2.74,11.348,4.11,17.021
			c2.231,6.679,4.462,13.357,6.693,20.036c3.067,7.311,6.134,14.622,9.201,21.934c3.566,6.704,7.132,13.407,10.698,20.111
			c3.606,5.682,7.211,11.363,10.817,17.046c4.779,6.293,9.558,12.585,14.336,18.878c5.84,6.379,11.681,12.759,17.521,19.137
			c5.826,5.288,11.65,10.576,17.476,15.865c5.662,4.332,11.324,8.666,16.985,12.999c8.361,5.296,16.722,10.592,25.083,15.888
			c13.661,6.017,27.321,12.034,40.981,18.052c0.264,0.203,0.497,0.495,0.795,0.597c32.97,11.192,66.847,15.797,101.62,14.229
			c4.572-0.207,7.021-2.062,7.896-6.632c-5.542,0.265-10.984,0.632-16.433,0.767c-30.035,0.742-59.293-3.918-87.937-12.778
			c-13.57-5.745-27.139-11.49-40.708-17.236c-8.286-5.022-16.573-10.045-24.858-15.068c-5.847-4.276-11.693-8.552-17.541-12.828
			c-5.484-4.681-10.969-9.362-16.454-14.042c-0.042-0.237-0.179-0.395-0.413-0.47c0.133-0.19,0.103-0.35-0.09-0.479
			c-5.885-6.365-11.771-12.73-17.657-19.097c-4.908-6.355-9.815-12.712-14.723-19.067c-3.783-5.615-7.566-11.23-11.349-16.846
			c-3.447-6.65-6.894-13.301-10.341-19.951c-3.006-7.013-6.013-14.025-9.019-21.038c-2.496-7.5-4.991-15-7.487-22.5
			c-1.212-5.167-2.424-10.335-3.635-15.503c-1.24-6.992-2.479-13.983-3.719-20.976c-0.301-1.396-0.782-2.779-0.874-4.188
			c-0.43-6.6-0.752-13.207-1.113-19.812c0.618-13.997,1.235-27.996,1.853-41.993c1.431-8.67,2.862-17.341,4.294-26.01
			c1.544-5.663,3.089-11.324,4.633-16.986c2.094-6.335,4.188-12.67,6.282-19.004c3.041-6.986,6.082-13.973,9.123-20.958
			c3.633-6.676,7.266-13.351,10.898-20.026c4.441-6.636,8.883-13.271,13.324-19.907c4.563-5.694,9.126-11.39,13.689-17.084
			c1.251-1.276,2.518-2.537,3.752-3.83c4.801-5.026,9.592-10.063,14.387-15.095c9.338-7.67,18.676-15.34,28.015-23.01
			c17.012-11.44,34.81-21.441,53.764-29.319c1.247-0.439,2.505-0.851,3.741-1.32c34.313-13.034,69.803-18.73,106.472-17.103
			c25.561,1.135,50.377,6.172,74.623,14.21c12.397,5.44,24.794,10.879,37.191,16.318c9.248,5.738,18.495,11.476,27.743,17.214
			c7.762,6.242,15.523,12.483,23.285,18.726c6.179,6.109,12.357,12.218,18.535,18.328c5.01,5.994,10.02,11.986,15.028,17.979
			c4.414,6.308,8.827,12.615,13.241,18.923c3.771,6.64,7.541,13.279,11.313,19.918c3.35,7.348,6.7,14.694,10.051,22.042
			c2.608,7.322,5.217,14.645,7.825,21.968c2.09,8.677,4.181,17.354,6.271,26.032c1.497,10.931,2.994,21.862,4.489,32.778
			c5.446-1.493,5.728-1.528,5.087-6.655c-1.094-8.743-2.58-17.438-3.9-26.152c-2.055-8.647-4.109-17.296-6.163-25.943
			c-2.615-7.348-5.231-14.695-7.847-22.043c-3.298-7.346-6.597-14.69-9.895-22.036c-4.038-7.321-8.076-14.641-12.114-21.961
			c-4.066-5.98-8.132-11.961-12.198-17.943c-5.253-6.375-10.506-12.751-15.758-19.127c-5.72-5.632-11.438-11.265-17.157-16.898
			c-0.31-0.278-0.62-0.557-0.93-0.836l-0.029-0.165c-7.621-6.376-15.241-12.752-22.862-19.128c-1.397-1.122-2.699-2.398-4.209-3.338
			c-7.886-4.912-15.824-9.738-23.744-14.594c-13.044-5.954-26.087-11.906-39.13-17.858c-2.947-1.089-5.858-2.292-8.846-3.253
			c-42.793-13.771-86.356-16.458-130.529-8.51c-18.813,3.386-37.225,8.395-54.647,16.524c-19.544,7.556-37.551,17.851-54.273,30.438
			c-9.272,7.77-18.545,15.538-27.817,23.307c-6.374,6.764-12.747,13.528-19.121,20.291c-4.49,5.723-8.979,11.445-13.468,17.168
			c-4.087,6.288-8.174,12.577-12.261,18.865c-3.769,6.967-7.538,13.934-11.307,20.9c-3.172,7.399-6.344,14.796-9.517,22.194
			C357.077,310.329,355.014,316.648,352.951,322.968z"/>
		<path fill-rule="evenodd" clip-rule="evenodd" fill="#FEF709" d="M506.903,150.848c17.422-8.13,35.833-13.139,54.647-16.524
			c44.172-7.948,87.736-5.262,130.529,8.51c2.987,0.962,5.898,2.164,8.846,3.253c-1.375,1.484-2.749,2.969-4.123,4.453
			c-24.246-8.038-49.063-13.075-74.623-14.21c-36.669-1.628-72.159,4.069-106.472,17.103c-1.236,0.469-2.494,0.88-3.741,1.32
			C510.278,153.45,508.591,152.149,506.903,150.848z"/>
		<path fill-rule="evenodd" clip-rule="evenodd" fill="#170AB2" d="M527.931,647.075c28.644,8.86,57.902,13.521,87.937,12.778
			c5.448-0.135,10.891-0.502,16.433-0.767c-0.874,4.57-3.323,6.425-7.896,6.632c-34.773,1.568-68.65-3.036-101.62-14.229
			c-0.298-0.102-0.532-0.394-0.795-0.597C523.971,649.621,525.951,648.348,527.931,647.075z"/>
		<path fill-rule="evenodd" clip-rule="evenodd" fill="#FEE309" d="M506.903,150.848c1.688,1.302,3.375,2.603,5.063,3.904
			c-18.955,7.878-36.752,17.879-53.764,29.319c-1.857-0.929-3.714-1.856-5.571-2.785
			C469.352,168.698,487.359,158.403,506.903,150.848z"/>
		<path fill-rule="evenodd" clip-rule="evenodd" fill="#2209A9" d="M527.931,647.075c-1.98,1.272-3.96,2.546-5.941,3.818
			c-13.66-6.018-27.321-12.035-40.981-18.052c2.071-1.001,4.143-2.002,6.214-3.003C500.792,635.585,514.361,641.33,527.931,647.075z
			"/>
		<path fill-rule="evenodd" clip-rule="evenodd" fill="#FEED09" d="M696.802,150.539c1.374-1.484,2.748-2.968,4.123-4.453
			c13.043,5.953,26.086,11.905,39.13,17.858c-2.021,0.971-4.041,1.941-6.062,2.913C721.596,161.418,709.199,155.979,696.802,150.539
			z"/>
		<path fill-rule="evenodd" clip-rule="evenodd" fill="#FD0E07" d="M342.299,407.954c0.624-14.324,1.248-28.649,1.871-42.973
			c1.878,0.333,3.755,0.666,5.634,1c-0.618,13.997-1.235,27.996-1.853,41.993C346.067,407.967,344.183,407.961,342.299,407.954z"/>
		<path fill-rule="evenodd" clip-rule="evenodd" fill="#FECC09" d="M452.63,181.285c1.857,0.929,3.714,1.856,5.571,2.785
			c-9.338,7.67-18.676,15.34-28.015,23.01c-1.791-0.829-3.582-1.658-5.374-2.488C434.085,196.823,443.358,189.055,452.63,181.285z"
			/>
		<path fill-rule="evenodd" clip-rule="evenodd" fill="#FE200B" d="M872.961,347.959c1.32,8.714,2.807,17.409,3.9,26.152
			c0.641,5.127,0.359,5.162-5.087,6.655c-1.495-10.917-2.992-21.848-4.489-32.778C869.177,347.978,871.068,347.969,872.961,347.959z
			"/>
		<path fill-rule="evenodd" clip-rule="evenodd" fill="#FEDE07" d="M733.993,166.857c2.021-0.972,4.041-1.942,6.062-2.913
			c7.92,4.856,15.858,9.682,23.744,14.594c1.51,0.94,2.812,2.216,4.209,3.338c-2.091,0.731-4.182,1.463-6.271,2.194
			C752.488,178.333,743.241,172.595,733.993,166.857z"/>
		<path fill-rule="evenodd" clip-rule="evenodd" fill="#FECC09" d="M761.736,184.071c2.09-0.731,4.181-1.463,6.271-2.194
			c7.621,6.376,15.241,12.752,22.862,19.128c-1.949,0.597-3.898,1.194-5.849,1.792C777.26,196.555,769.498,190.313,761.736,184.071z
			"/>
		<path fill-rule="evenodd" clip-rule="evenodd" fill="#2D09A0" d="M487.223,629.839c-2.071,1.001-4.143,2.002-6.214,3.003
			c-8.361-5.296-16.722-10.592-25.083-15.888c2.146-0.728,4.292-1.456,6.439-2.184C470.65,619.794,478.937,624.816,487.223,629.839z
			"/>
		<path fill-rule="evenodd" clip-rule="evenodd" fill="#FE3709" d="M872.961,347.959c-1.893,0.01-3.784,0.019-5.676,0.029
			c-2.09-8.677-4.181-17.355-6.271-26.032c1.928,0.02,3.855,0.039,5.783,0.06C868.852,330.663,870.906,339.312,872.961,347.959z"/>
		<path fill-rule="evenodd" clip-rule="evenodd" fill="#560881" d="M421.465,588.09c-5.84-6.378-11.681-12.758-17.521-19.137
			c2.088-0.366,4.178-0.732,6.267-1.099c5.885,6.366,11.771,12.731,17.657,19.097C425.733,587.331,423.6,587.711,421.465,588.09z"/>
		<path fill-rule="evenodd" clip-rule="evenodd" fill="#FE2809" d="M349.804,365.981c-1.878-0.334-3.756-0.667-5.634-1
			c1.325-8.334,2.649-16.668,3.974-25.001c1.984-0.003,3.969-0.006,5.954-0.009C352.666,348.64,351.234,357.311,349.804,365.981z"/>
		<path fill-rule="evenodd" clip-rule="evenodd" fill="#FEB606" d="M424.813,204.592c1.792,0.83,3.583,1.659,5.374,2.488
			c-4.795,5.032-9.586,10.069-14.387,15.095c-1.234,1.293-2.501,2.553-3.752,3.83c-2.119-0.374-4.237-0.748-6.356-1.122
			C412.066,218.12,418.439,211.356,424.813,204.592z"/>
		<path fill-rule="evenodd" clip-rule="evenodd" fill="#FEB606" d="M785.021,202.797c1.95-0.598,3.899-1.195,5.849-1.792
			c0,0,0.029,0.165,0.029,0.164c0.31,0.278,0.62,0.558,0.93,0.837c5.719,5.633,11.438,11.266,17.157,16.898
			c-1.811,0.74-3.62,1.48-5.43,2.22C797.379,215.016,791.2,208.907,785.021,202.797z"/>
		<path fill-rule="evenodd" clip-rule="evenodd" fill="#F20A12" d="M342.299,407.954c1.884,0.007,3.768,0.013,5.652,0.02
			c0.361,6.604,0.683,13.212,1.113,19.812c0.092,1.409,0.573,2.793,0.874,4.188c-1.897-0.007-3.795-0.015-5.692-0.022
			C343.597,423.952,342.948,415.953,342.299,407.954z"/>
		<path fill-rule="evenodd" clip-rule="evenodd" fill="#FE620A" d="M853.189,299.988c-3.351-7.348-6.701-14.694-10.051-22.042
			c1.973-0.003,3.945-0.007,5.918-0.01c3.298,7.346,6.597,14.69,9.895,22.036C857.03,299.978,855.109,299.982,853.189,299.988z"/>
		<path fill-rule="evenodd" clip-rule="evenodd" fill="#6C0B74" d="M410.21,567.854c-2.089,0.366-4.178,0.732-6.267,1.099
			c-4.779-6.293-9.558-12.585-14.336-18.878c1.96-0.43,3.92-0.859,5.88-1.288C400.396,555.143,405.303,561.499,410.21,567.854z"/>
		<path fill-rule="evenodd" clip-rule="evenodd" fill="#FE7E08" d="M849.057,277.937c-1.973,0.003-3.945,0.007-5.918,0.01
			c-3.771-6.639-7.542-13.279-11.313-19.918c1.706-0.684,3.411-1.368,5.116-2.053C840.98,263.295,845.019,270.616,849.057,277.937z"
			/>
		<path fill-rule="evenodd" clip-rule="evenodd" fill="#FEA90B" d="M803.557,221.125c1.81-0.74,3.619-1.48,5.43-2.22
			c5.252,6.376,10.505,12.752,15.758,19.127c-2.054,0.357-4.106,0.715-6.159,1.072C813.576,233.111,808.566,227.119,803.557,221.125
			z"/>
		<path fill-rule="evenodd" clip-rule="evenodd" fill="#FE4F0A" d="M853.189,299.988c1.92-0.006,3.841-0.011,5.762-0.016
			c2.615,7.348,5.231,14.695,7.847,22.043c-1.928-0.021-3.855-0.04-5.783-0.06C858.406,314.633,855.798,307.311,853.189,299.988z"/>
		<path fill-rule="evenodd" clip-rule="evenodd" fill="#A90946" d="M368.092,512.918c-3.067-7.312-6.134-14.623-9.201-21.934
			c1.962-0.011,3.924-0.021,5.887-0.032c3.006,7.013,6.013,14.025,9.019,21.038C371.896,512.3,369.994,512.608,368.092,512.918z"/>
		<path fill-rule="evenodd" clip-rule="evenodd" fill="#FE9009" d="M398.358,243.089c-4.441,6.636-8.882,13.271-13.324,19.907
			c-1.69-0.693-3.381-1.387-5.071-2.081c4.087-6.288,8.174-12.577,12.261-18.865C394.269,242.397,396.313,242.742,398.358,243.089z"
			/>
		<path fill-rule="evenodd" clip-rule="evenodd" fill="#FE7E08" d="M379.963,260.915c1.69,0.693,3.381,1.388,5.071,2.081
			c-3.633,6.675-7.266,13.35-10.898,20.026c-1.826-0.402-3.653-0.804-5.48-1.206C372.425,274.849,376.194,267.882,379.963,260.915z"
			/>
		<path fill-rule="evenodd" clip-rule="evenodd" fill="#FE620A" d="M368.656,281.815c1.827,0.402,3.654,0.804,5.48,1.206
			c-3.041,6.985-6.082,13.972-9.123,20.958c-1.958,0.01-3.916,0.02-5.874,0.029C362.312,296.612,365.484,289.214,368.656,281.815z"
			/>
		<path fill-rule="evenodd" clip-rule="evenodd" fill="#45088E" d="M421.465,588.09c2.135-0.379,4.269-0.759,6.402-1.139
			c0.193,0.13,0.223,0.289,0.088,0.474c0.172,0.126,0.311,0.286,0.415,0.476c5.485,4.68,10.97,9.361,16.454,14.042
			c-1.961,0.671-3.922,1.342-5.884,2.013C433.115,598.666,427.291,593.378,421.465,588.09z"/>
		<path fill-rule="evenodd" clip-rule="evenodd" fill="#930957" d="M368.092,512.918c1.901-0.31,3.804-0.618,5.705-0.928
			c3.448,6.65,6.895,13.301,10.341,19.951c-1.783,0.362-3.565,0.726-5.348,1.088C375.225,526.325,371.658,519.622,368.092,512.918z"
			/>
		<path fill-rule="evenodd" clip-rule="evenodd" fill="#E20A1E" d="M344.246,431.951c1.897,0.008,3.794,0.016,5.692,0.022
			c1.24,6.992,2.479,13.983,3.719,20.976c-1.856,0.326-3.712,0.651-5.568,0.978C346.807,446.602,345.527,439.276,344.246,431.951z"
			/>
		<path fill-rule="evenodd" clip-rule="evenodd" fill="#FE9009" d="M818.585,239.104c2.053-0.357,4.105-0.715,6.159-1.072
			c4.066,5.981,8.132,11.962,12.198,17.943c-1.705,0.685-3.41,1.369-5.116,2.053C827.412,251.72,822.999,245.412,818.585,239.104z"
			/>
		<path fill-rule="evenodd" clip-rule="evenodd" fill="#C00C39" d="M364.778,490.952c-1.962,0.011-3.924,0.021-5.887,0.032
			c-2.231-6.679-4.462-13.357-6.693-20.036c1.698-0.832,3.395-1.664,5.093-2.496C359.787,475.952,362.282,483.452,364.778,490.952z"
			/>
		<path fill-rule="evenodd" clip-rule="evenodd" fill="#390998" d="M438.94,603.955c1.961-0.671,3.923-1.342,5.884-2.013
			c5.847,4.276,11.693,8.552,17.541,12.828c-2.146,0.728-4.292,1.456-6.439,2.184C450.264,612.621,444.602,608.287,438.94,603.955z"
			/>
		<path fill-rule="evenodd" clip-rule="evenodd" fill="#FEA90B" d="M398.358,243.089c-2.044-0.347-4.089-0.692-6.134-1.039
			c4.489-5.723,8.979-11.445,13.468-17.168c2.119,0.374,4.237,0.748,6.356,1.122C407.484,231.699,402.921,237.395,398.358,243.089z"
			/>
		<path fill-rule="evenodd" clip-rule="evenodd" fill="#FE4F0A" d="M359.139,304.009c1.958-0.01,3.916-0.02,5.874-0.029
			c-2.094,6.334-4.188,12.669-6.282,19.004c-1.926-0.006-3.853-0.011-5.779-0.017C355.014,316.648,357.077,310.329,359.139,304.009z
			"/>
		<path fill-rule="evenodd" clip-rule="evenodd" fill="#7E0865" d="M378.791,533.029c1.783-0.362,3.565-0.726,5.348-1.088
			c3.783,5.615,7.566,11.23,11.349,16.846c-1.96,0.429-3.92,0.858-5.88,1.288C386.002,544.393,382.396,538.711,378.791,533.029z"/>
		<path fill-rule="evenodd" clip-rule="evenodd" fill="#D10828" d="M357.292,468.452c-1.698,0.832-3.396,1.664-5.093,2.496
			c-1.37-5.674-2.74-11.348-4.11-17.021c1.856-0.326,3.712-0.651,5.568-0.978C354.868,458.117,356.08,463.285,357.292,468.452z"/>
		<path fill-rule="evenodd" clip-rule="evenodd" fill="#FE3709" d="M352.951,322.968c1.926,0.006,3.853,0.011,5.779,0.017
			c-1.544,5.662-3.088,11.324-4.633,16.986c-1.985,0.003-3.97,0.006-5.954,0.009C349.746,334.308,351.349,328.638,352.951,322.968z"
			/>
		<path fill-rule="evenodd" clip-rule="evenodd" fill="#560881" d="M428.37,587.9c-0.104-0.189-0.243-0.35-0.415-0.476
			C428.191,587.506,428.329,587.663,428.37,587.9z"/>
		<path fill-rule="evenodd" clip-rule="evenodd" fill="#FECC09" d="M791.829,202.006c-0.31-0.279-0.62-0.559-0.93-0.837
			C791.209,201.45,791.52,201.728,791.829,202.006z"/>
	</g>
</g>
</svg>
