<?xml version="1.0" encoding="utf-8"?>
<!-- Generator: Adobe Illustrator 16.0.3, SVG Export Plug-In . SVG Version: 6.00 Build 0)  -->
<!DOCTYPE svg PUBLIC "-//W3C//DTD SVG 1.1//EN" "http://www.w3.org/Graphics/SVG/1.1/DTD/svg11.dtd">
<svg version="1.1" id="Capa_1" xmlns="http://www.w3.org/2000/svg" xmlns:xlink="http://www.w3.org/1999/xlink" x="0px" y="0px"
	 width="1224px" height="792px" viewBox="0 0 1224 792" enable-background="new 0 0 1224 792" xml:space="preserve">
<g>
	<g>
		<path fill-rule="evenodd" clip-rule="evenodd" fill="#FEFEFE" d="M322,689.927c0-194.643,0-389.284,0-583.927
			c194.642,0,389.284,0,583.927,0c0,194.643,0,389.284,0,583.927C711.284,689.927,516.642,689.927,322,689.927z M818.955,485.951
			c1.941-4.677,3.883-9.355,5.824-14.033c1.368-4.329,2.736-8.657,4.104-12.986c1.284-4.993,2.568-9.986,3.854-14.98
			c0.951-5.334,1.902-10.667,2.854-16.002c0.636-6.669,1.271-13.338,1.907-20.008c-0.489-12.973-0.979-25.946-1.469-38.92
			c-1.41-8.336-2.82-16.672-4.231-25.008c-1.997-7-3.994-14-5.991-21c-2.58-6.349-5.158-12.699-7.737-19.047
			c-3.069-6.321-6.137-12.641-9.205-18.961c-3.286-5.35-6.572-10.7-9.858-16.05c-4.043-5.315-8.085-10.631-12.127-15.946
			c-4.197-4.913-8.395-9.826-12.592-14.738c-4.322-4.148-8.645-8.295-12.967-12.442c-6.752-5.358-13.505-10.715-20.258-16.073
			c-10.017-5.961-20.034-11.922-30.052-17.883c-11.026-4.484-22.053-8.969-33.079-13.453c-6.807-1.825-13.562-3.879-20.43-5.432
			c-19.438-4.395-39.175-5.839-59.036-4.774c-22.524,1.208-44.559,5.13-65.672,13.404c-14.704,4.716-28.32,11.642-41.729,19.82
			c1.355,1.885,2.294,3.192,2.763,3.845c15.375-6.811,30.315-13.429,45.255-20.047c1.282-0.325,2.553-0.71,3.85-0.966
			c15.778-3.121,31.445-7.148,47.366-9.123c27.55-3.417,54.708,0.343,81.444,7.388c11.249,4.214,22.499,8.43,33.749,12.644
			c10.186,5.921,20.37,11.842,30.556,17.763c6.577,5.121,13.155,10.241,19.733,15.36c4.717,4.569,9.434,9.139,14.15,13.708
			c3.952,4.34,7.905,8.68,11.857,13.021c3.745,4.977,7.491,9.954,11.237,14.931c3.605,5.729,7.21,11.458,10.815,17.186
			c3.016,5.971,6.031,11.943,9.046,17.914c2.428,6.307,4.856,12.615,7.284,18.922c1.956,6.655,3.912,13.312,5.868,19.967
			c1.497,8.368,2.995,16.735,4.492,25.104c0.456,12.967,0.913,25.934,1.369,38.901c-0.656,6.668-1.313,13.336-1.97,20.004
			c-0.94,5-1.88,9.999-2.82,15c-1.249,4.951-2.499,9.902-3.748,14.855c-1.405,4.381-2.811,8.762-4.216,13.144
			c-1.797,4.646-3.593,9.294-5.39,13.939c-2.09,4.304-4.179,8.606-6.269,12.909c-2.617,4.679-5.233,9.356-7.851,14.035
			c-3.606,5.354-7.214,10.707-10.82,16.062c-4.354,5.324-8.709,10.647-13.064,15.973c-4.284,4.352-8.57,8.704-12.855,13.057
			c-4.361,3.913-8.723,7.827-13.084,11.74c-6.352,4.598-12.704,9.195-19.057,13.793c-9.271,5.152-18.541,10.305-27.812,15.459
			c-12.004,4.32-24.007,8.641-36.011,12.962c-14.439,2.213-28.813,5.2-43.335,6.463c-24.56,2.137-48.792-0.982-72.628-7.178
			c-9.921-3.442-19.842-6.884-29.764-10.326c-7.888-4.032-15.774-8.064-23.662-12.097c-1.619-1.091-3.239-2.179-4.855-3.272
			c-5.494-3.713-10.986-7.429-16.479-11.144c-6.175-5.187-12.351-10.372-18.765-15.759c-1.134,1.637-2.142,3.092-3.539,5.109
			c5.71,4.561,11.229,8.966,16.747,13.371c6.706,4.659,13.412,9.318,20.118,13.979c8.042,4.364,16.083,8.729,24.124,13.096
			c10.03,3.807,20.06,7.613,30.089,11.419c43.334,12.496,86.647,12.887,129.936-0.232c10.341-3.884,20.681-7.769,31.021-11.651
			c8.809-4.779,17.63-9.536,26.401-14.382c0.735-0.406,1.133-1.424,1.688-2.158c6.637-4.727,13.274-9.455,19.911-14.183
			c4.665-4.057,9.329-8.112,13.993-12.17c4.732-4.918,9.464-9.837,14.196-14.756c4.248-5.361,8.496-10.723,12.743-16.084
			c3.499-5.28,6.997-10.561,10.495-15.84c2.508-4.714,5.016-9.427,7.524-14.14C814.914,494.617,816.935,490.284,818.955,485.951z"/>
		<path fill-rule="evenodd" clip-rule="evenodd" fill="#FEF709" d="M671.743,182.533c-26.736-7.045-53.894-10.804-81.444-7.388
			c-15.921,1.975-31.588,6.002-47.366,9.123c-1.297,0.256-2.568,0.641-3.851,0.966c-2.097-1.206-4.193-2.412-6.289-3.618
			c21.113-8.274,43.148-12.197,65.672-13.404c19.861-1.064,39.599,0.38,59.036,4.774c6.868,1.553,13.623,3.607,20.43,5.432
			C675.868,179.791,673.806,181.162,671.743,182.533z"/>
		<path fill-rule="evenodd" clip-rule="evenodd" fill="#1508B1" d="M550.973,610.17c23.835,6.195,48.068,9.314,72.628,7.178
			c14.522-1.263,28.896-4.25,43.335-6.463c2.662,1.144,5.324,2.286,7.986,3.429c-43.289,13.119-86.602,12.729-129.936,0.232
			C546.981,613.088,548.977,611.629,550.973,610.17z"/>
		<path fill-rule="evenodd" clip-rule="evenodd" fill="#FEEA0C" d="M532.794,181.617c2.096,1.206,4.192,2.412,6.289,3.618
			c-14.939,6.619-29.879,13.237-45.254,20.047c-0.469-0.653-1.408-1.96-2.763-3.845C504.474,193.259,518.09,186.333,532.794,181.617
			z"/>
		<path fill-rule="evenodd" clip-rule="evenodd" fill="#FD0C07" d="M836.029,369.021c0.49,12.974,0.979,25.947,1.469,38.92
			c-1.865,0.004-3.73,0.008-5.597,0.012c-0.456-12.967-0.913-25.934-1.369-38.901C832.365,369.042,834.197,369.031,836.029,369.021z
			"/>
		<path fill-rule="evenodd" clip-rule="evenodd" fill="#FEF00B" d="M671.743,182.533c2.063-1.371,4.125-2.743,6.188-4.114
			c11.026,4.484,22.053,8.969,33.079,13.453c-1.839,1.101-3.679,2.204-5.519,3.305C694.242,190.963,682.992,186.748,671.743,182.533
			z"/>
		<path fill-rule="evenodd" clip-rule="evenodd" fill="#1C08AC" d="M674.922,614.313c-2.662-1.143-5.324-2.285-7.986-3.429
			c12.004-4.321,24.007-8.642,36.011-12.962c0.999,1.579,1.998,3.159,2.996,4.739C695.603,606.545,685.263,610.43,674.922,614.313z"
			/>
		<path fill-rule="evenodd" clip-rule="evenodd" fill="#FEE20A" d="M705.492,195.177c1.84-1.102,3.68-2.204,5.519-3.305
			c10.018,5.961,20.035,11.922,30.052,17.883c-1.672,1.063-3.344,2.124-5.015,3.185C725.862,207.02,715.678,201.098,705.492,195.177
			z"/>
		<path fill-rule="evenodd" clip-rule="evenodd" fill="#1C08AC" d="M550.973,610.17c-1.996,1.459-3.991,2.918-5.987,4.376
			c-10.029-3.806-20.059-7.612-30.089-11.419c2.104-1.095,4.208-2.188,6.313-3.283C531.13,603.286,541.051,606.728,550.973,610.17z"
			/>
		<path fill-rule="evenodd" clip-rule="evenodd" fill="#2A0BA4" d="M705.942,602.662c-0.998-1.58-1.997-3.16-2.996-4.739
			c9.271-5.154,18.541-10.307,27.812-15.459c1.092,1.219,2.182,2.438,3.273,3.658c-0.555,0.734-0.952,1.752-1.688,2.158
			C723.572,593.126,714.751,597.883,705.942,602.662z"/>
		<path fill-rule="evenodd" clip-rule="evenodd" fill="#2A0BA4" d="M521.209,599.844c-2.104,1.095-4.208,2.188-6.313,3.283
			c-8.041-4.366-16.082-8.731-24.124-13.096c2.259-0.762,4.517-1.522,6.775-2.284C505.435,591.779,513.321,595.812,521.209,599.844z
			"/>
		<path fill-rule="evenodd" clip-rule="evenodd" fill="#FE2808" d="M836.029,369.021c-1.832,0.01-3.664,0.021-5.497,0.03
			c-1.497-8.368-2.995-16.735-4.492-25.104c1.92,0.021,3.839,0.044,5.758,0.065C833.209,352.35,834.619,360.686,836.029,369.021z"/>
		<path fill-rule="evenodd" clip-rule="evenodd" fill="#FED108" d="M736.048,212.94c1.671-1.062,3.343-2.123,5.015-3.185
			c6.753,5.358,13.506,10.715,20.258,16.073c-1.846,0.824-3.692,1.648-5.539,2.472C749.203,223.182,742.625,218.061,736.048,212.94z
			"/>
		<path fill-rule="evenodd" clip-rule="evenodd" fill="#450D93" d="M470.655,576.053c-5.518-4.405-11.037-8.811-16.747-13.371
			c1.397-2.018,2.405-3.473,3.539-5.109c6.415,5.387,12.59,10.572,18.765,15.76C474.36,574.239,472.507,575.146,470.655,576.053z"/>
		<path fill-rule="evenodd" clip-rule="evenodd" fill="#380A9A" d="M470.655,576.053c1.852-0.906,3.705-1.813,5.557-2.721
			c5.494,3.714,10.986,7.43,16.479,11.143c1.617,1.094,3.237,2.182,4.856,3.272c-2.258,0.762-4.516,1.522-6.774,2.284
			C484.067,585.371,477.361,580.712,470.655,576.053z"/>
		<path fill-rule="evenodd" clip-rule="evenodd" fill="#380A9A" d="M734.031,586.122c-1.092-1.22-2.182-2.439-3.273-3.658
			c6.353-4.598,12.705-9.195,19.057-13.794c1.376,1.09,2.752,2.18,4.128,3.27C747.306,576.667,740.668,581.396,734.031,586.122z"/>
		<path fill-rule="evenodd" clip-rule="evenodd" fill="#FE420B" d="M831.798,344.014c-1.919-0.021-3.838-0.044-5.758-0.065
			c-1.956-6.655-3.912-13.312-5.868-19.967c1.878-0.322,3.756-0.646,5.635-0.968C827.804,330.014,829.801,337.014,831.798,344.014z"
			/>
		<path fill-rule="evenodd" clip-rule="evenodd" fill="#FE5909" d="M825.807,323.014c-1.879,0.322-3.757,0.646-5.635,0.968
			c-2.428-6.307-4.856-12.615-7.284-18.922c1.728-0.364,3.454-0.729,5.182-1.093C820.648,310.315,823.227,316.665,825.807,323.014z"
			/>
		<path fill-rule="evenodd" clip-rule="evenodd" fill="#F00B16" d="M831.901,407.953c1.866-0.004,3.731-0.008,5.597-0.012
			c-0.636,6.67-1.271,13.339-1.907,20.008c-1.887,0.002-3.773,0.005-5.659,0.008C830.588,421.289,831.245,414.621,831.901,407.953z"
			/>
		<path fill-rule="evenodd" clip-rule="evenodd" fill="#670A77" d="M794.875,528.93c-4.247,5.361-8.495,10.723-12.743,16.084
			c-2.126-0.38-4.252-0.761-6.378-1.14c4.355-5.325,8.71-10.648,13.064-15.973C790.838,528.244,792.856,528.588,794.875,528.93z"/>
		<path fill-rule="evenodd" clip-rule="evenodd" fill="#FE7108" d="M818.069,303.966c-1.728,0.364-3.454,0.729-5.182,1.093
			c-3.015-5.971-6.03-11.942-9.046-17.914c1.675-0.714,3.349-1.427,5.022-2.141C811.933,291.325,815,297.646,818.069,303.966z"/>
		<path fill-rule="evenodd" clip-rule="evenodd" fill="#FE890A" d="M808.864,285.005c-1.674,0.714-3.348,1.427-5.022,2.141
			c-3.605-5.729-7.21-11.458-10.815-17.186c1.993-0.335,3.986-0.67,5.979-1.005C802.292,274.305,805.578,279.655,808.864,285.005z"
			/>
		<path fill-rule="evenodd" clip-rule="evenodd" fill="#FE9E0B" d="M799.006,268.955c-1.993,0.335-3.986,0.67-5.979,1.005
			c-3.746-4.977-7.492-9.954-11.237-14.931c1.696-0.673,3.393-1.346,5.09-2.019C790.921,258.324,794.963,263.64,799.006,268.955z"/>
		<path fill-rule="evenodd" clip-rule="evenodd" fill="#7C0A69" d="M794.875,528.93c-2.019-0.342-4.037-0.686-6.057-1.028
			c3.606-5.354,7.214-10.708,10.82-16.062c1.91,0.416,3.82,0.833,5.731,1.25C801.872,518.369,798.374,523.649,794.875,528.93z"/>
		<path fill-rule="evenodd" clip-rule="evenodd" fill="#FEC20F" d="M755.781,228.301c1.847-0.824,3.693-1.648,5.539-2.472
			c4.322,4.147,8.645,8.294,12.964,12.443c-1.452,1.246-2.902,2.492-4.353,3.737C765.215,237.439,760.498,232.87,755.781,228.301z"
			/>
		<path fill-rule="evenodd" clip-rule="evenodd" fill="#590F87" d="M775.754,543.874c2.126,0.379,4.252,0.76,6.378,1.14
			c-4.732,4.919-9.464,9.838-14.196,14.756c-1.679-0.945-3.358-1.892-5.037-2.839C767.184,552.578,771.47,548.226,775.754,543.874z"
			/>
		<path fill-rule="evenodd" clip-rule="evenodd" fill="#FEB008" d="M769.932,242.008c1.45-1.245,2.9-2.491,4.353-3.737
			c4.2,4.911,8.397,9.825,12.595,14.737c-1.697,0.674-3.394,1.347-5.09,2.02C777.837,250.688,773.884,246.349,769.932,242.008z"/>
		<path fill-rule="evenodd" clip-rule="evenodd" fill="#450D93" d="M762.898,556.931c1.679,0.947,3.358,1.894,5.037,2.839
			c-4.664,4.058-9.328,8.113-13.993,12.17c-1.376-1.09-2.752-2.18-4.128-3.27C754.176,564.758,758.537,560.844,762.898,556.931z"/>
		<path fill-rule="evenodd" clip-rule="evenodd" fill="#E00A1F" d="M829.932,427.957c1.886-0.003,3.772-0.006,5.659-0.008
			c-0.951,5.335-1.902,10.668-2.854,16.002c-1.875-0.332-3.75-0.664-5.626-0.994C828.052,437.956,828.991,432.957,829.932,427.957z"
			/>
		<path fill-rule="evenodd" clip-rule="evenodd" fill="#900C5C" d="M805.37,513.09c-1.911-0.417-3.821-0.834-5.731-1.25
			c2.617-4.679,5.233-9.356,7.851-14.035c1.802,0.382,3.604,0.764,5.405,1.146C810.386,503.663,807.878,508.376,805.37,513.09z"/>
		<path fill-rule="evenodd" clip-rule="evenodd" fill="#D1092A" d="M827.111,442.957c1.876,0.33,3.751,0.662,5.626,0.994
			c-1.285,4.994-2.569,9.987-3.854,14.98c-1.841-0.373-3.681-0.746-5.521-1.119C824.612,452.859,825.862,447.908,827.111,442.957z"
			/>
		<path fill-rule="evenodd" clip-rule="evenodd" fill="#B10941" d="M824.779,471.918c-1.941,4.678-3.883,9.356-5.824,14.033
			c-1.732-0.352-3.465-0.703-5.197-1.056c1.797-4.646,3.593-9.293,5.39-13.939C821.024,471.276,822.902,471.598,824.779,471.918z"/>
		<path fill-rule="evenodd" clip-rule="evenodd" fill="#C10A36" d="M824.779,471.918c-1.877-0.32-3.755-0.642-5.632-0.962
			c1.405-4.382,2.811-8.763,4.216-13.144c1.84,0.373,3.68,0.746,5.521,1.119C827.516,463.261,826.147,467.589,824.779,471.918z"/>
		<path fill-rule="evenodd" clip-rule="evenodd" fill="#A00A4E" d="M813.758,484.896c1.732,0.353,3.465,0.704,5.197,1.056
			c-2.021,4.333-4.041,8.666-6.061,12.999c-1.802-0.382-3.604-0.764-5.405-1.146C809.579,493.502,811.668,489.199,813.758,484.896z"
			/>
	</g>
</g>
</svg>
