<?xml version="1.0" encoding="utf-8"?>
<!-- Generator: Adobe Illustrator 16.0.3, SVG Export Plug-In . SVG Version: 6.00 Build 0)  -->
<!DOCTYPE svg PUBLIC "-//W3C//DTD SVG 1.1//EN" "http://www.w3.org/Graphics/SVG/1.1/DTD/svg11.dtd">
<svg version="1.1" id="Capa_1" xmlns="http://www.w3.org/2000/svg" xmlns:xlink="http://www.w3.org/1999/xlink" x="0px" y="0px"
	 width="1224px" height="792px" viewBox="0 0 1224 792" enable-background="new 0 0 1224 792" xml:space="preserve">
<g>
	<g>
		<path fill-rule="evenodd" clip-rule="evenodd" fill="#FEFEFE" d="M905.927,689.927c-194.643,0-389.285,0-583.927,0
			c0-194.643,0-389.284,0-583.927c194.642,0,389.284,0,583.927,0C905.927,300.643,905.927,495.284,905.927,689.927z
			 M714.049,415.214c8.146-5.123,11.719-12.745,7.736-19.804c-2.227-3.946-6.627-7.681-10.884-9.27
			c-11.403-4.257-23.258-7.306-34.934-10.836c-15.575-3.119-31.121-6.402-46.74-9.284c-7.391-1.363-14.997-3.103-22.375-2.631
			c-11.027,0.704-21.938,3.208-32.899,4.947c-6.188,1.219-12.518,1.967-18.539,3.75c-13.477,3.994-26.9,8.221-40.137,12.937
			c-5.514,1.964-9.965,5.925-12.123,11.834c-0.665,1.819-1.665,3.517-2.571,5.395c0.607,0.268,1.649,0.384,2.047,0.952
			c6.667,9.504,16.892,13.249,27.278,16.202c15.15,4.306,30.493,7.947,45.796,11.696c3.678,0.901,7.523,1.116,11.292,1.646
			c1.313,0.014,2.626,0.027,3.939,0.04c9.708-0.19,19.416-0.381,29.124-0.57c22.666-0.08,45.133-2.214,67.304-6.945
			C696.725,423.275,706.146,421.195,714.049,415.214z"/>
		<path fill-rule="evenodd" clip-rule="evenodd" fill="#505050" d="M620.06,432.219c-9.708,0.189-19.416,0.38-29.124,0.57
			c-1.313-0.013-2.626-0.026-3.939-0.04c-3.769-0.53-7.614-0.745-11.292-1.646c-15.303-3.749-30.646-7.391-45.796-11.696
			c-10.386-2.953-20.611-6.698-27.278-16.202c-0.398-0.568-1.44-0.685-2.047-0.952c0.907-1.878,1.907-3.575,2.571-5.395
			c2.158-5.909,6.609-9.87,12.123-11.834c13.237-4.716,26.661-8.943,40.137-12.937c6.021-1.784,12.35-2.532,18.539-3.75
			c0.417,2.966-1.228,3.999-3.852,4.67c-11.166,2.86-22.308,5.823-33.401,8.95c-1.412,0.398-2.488,1.992-3.719,3.032
			c-6.061,2.833-12.317,5.317-18.123,8.601c-5.195,2.938-5.452,7.583-0.606,10.95c3.863,2.685,8.454,4.322,12.721,6.424
			c1.666,2.326,3.348,4.561,6,1.006c0.667,0.016,1.334,0.031,2.002,0.047c0.551,0.743,0.966,1.949,1.673,2.155
			c5.774,1.686,11.604,3.185,17.415,4.739c3.965,0.683,7.93,1.363,11.895,2.046c0.746,0.731,1.388,1.926,2.254,2.121
			c7.64,1.729,15.257,4.033,23.005,4.689c9.52,0.808,19.159,0.194,28.747,0.196C619.996,429.381,620.027,430.8,620.06,432.219z"/>
		<path fill-rule="evenodd" clip-rule="evenodd" fill="#555455" d="M532.981,384.988c1.231-1.04,2.307-2.633,3.719-3.032
			c11.094-3.127,22.235-6.09,33.401-8.95c2.624-0.672,4.269-1.704,3.852-4.67c10.961-1.739,21.873-4.244,32.899-4.947
			c7.378-0.472,14.984,1.268,22.375,2.631c15.619,2.881,31.165,6.165,46.74,9.284c1.261,0.914,2.396,2.19,3.803,2.678
			c5.795,2.008,11.719,3.649,17.488,5.724c1.437,0.517,2.474,2.147,3.694,3.265c-13.197-3.677-26.307-7.717-39.613-10.944
			c-18.027-4.373-35.897-10.652-54.896-7.957c-7.245,1.028-14.321,3.246-21.475,4.921l0.019-0.011
			c-0.67,0.315-1.341,0.631-2.011,0.946c-2.89,0.601-5.787,1.165-8.666,1.807C560.532,378.807,546.757,381.902,532.981,384.988z"/>
		<path fill-rule="evenodd" clip-rule="evenodd" fill="#555455" d="M620.06,432.219c-0.032-1.419-0.063-2.838-0.095-4.256
			c12.787-0.999,25.607-1.71,38.352-3.104c7.968-0.871,15.827-2.75,23.717-4.27c0.398-0.077,0.626-1.041,0.934-1.593
			c0.653-0.012,1.308-0.024,1.961-0.036c0.724,0.328,1.536,1.059,2.157,0.921c8.637-1.904,17.247-3.929,25.864-5.924
			c0.366,0.419,0.732,0.837,1.1,1.256c-7.902,5.981-17.324,8.062-26.686,10.06C665.192,430.005,642.726,432.139,620.06,432.219z"/>
		<path fill-rule="evenodd" clip-rule="evenodd" fill="#4E4E4E" d="M714.049,415.214c-0.367-0.419-0.733-0.837-1.1-1.256
			c4.256-3.825,4.356-8.841,4.001-13.985c-0.442-6.045-6.447-11.511-10.996-10.009c-0.334-0.33-0.668-0.66-1.002-0.99
			c-0.247-0.835-0.493-1.669-0.74-2.503c-0.421,0.5-0.843,0.999-1.264,1.499c-0.665-0.333-1.33-0.665-1.995-0.997
			c-1.221-1.119-2.258-2.75-3.694-3.266c-5.77-2.075-11.693-3.715-17.488-5.724c-1.407-0.487-2.542-1.764-3.803-2.678
			c11.676,3.53,23.53,6.579,34.934,10.836c4.257,1.589,8.657,5.324,10.884,9.27C725.768,402.469,722.195,410.091,714.049,415.214z"
			/>
		<path fill-rule="evenodd" clip-rule="evenodd" fill="#555455" d="M586.996,432.749c1.313,0.014,2.626,0.027,3.939,0.04
			C589.623,432.776,588.309,432.763,586.996,432.749z"/>
		<path fill-rule="evenodd" clip-rule="evenodd" fill="#562F71" d="M684.928,418.961c-0.653,0.012-1.308,0.024-1.961,0.036
			c-14.561,1.67-29.102,3.554-43.69,4.931c-8.383,0.791-16.843,0.972-25.271,1.033c-7.52,0.054-15.071-0.115-22.559-0.768
			c-8.525-0.742-16.994-2.13-25.488-3.237c-3.965-0.683-7.93-1.363-11.896-2.045c-6.363-2.298-12.725-4.597-19.087-6.896
			c-0.667-0.016-1.334-0.031-2.002-0.047c-2-0.335-4-0.67-6-1.006c-4.268-2.102-8.858-3.739-12.721-6.424
			c-4.846-3.367-4.589-8.012,0.606-10.95c5.805-3.284,12.062-5.768,18.123-8.601c13.776-3.086,27.55-6.182,41.33-9.255
			c2.879-0.643,5.776-1.207,8.666-1.806c0.67-0.315,1.341-0.632,2.012-0.947l-0.019,0.011c2.952-0.278,5.909-0.511,8.855-0.844
			c6.063-0.686,12.25-2.572,18.15-1.898c11.771,1.342,23.491,3.621,35.038,6.34c20.392,4.801,40.638,10.223,60.944,15.384
			c2.68,2.663,5.359,5.326,8.039,7.99c0.106,7.788-6.029,10.215-11.535,12.539C698.163,415.16,691.457,416.851,684.928,418.961z"/>
		<path fill-rule="evenodd" clip-rule="evenodd" fill="#48464A" d="M565.958,420.956c8.494,1.107,16.963,2.495,25.488,3.237
			c7.488,0.652,15.04,0.821,22.559,0.768c8.428-0.062,16.888-0.242,25.271-1.033c14.589-1.377,29.13-3.261,43.69-4.931
			c-0.308,0.552-0.535,1.516-0.934,1.593c-7.89,1.52-15.749,3.398-23.717,4.27c-12.744,1.394-25.564,2.104-38.352,3.104
			c-9.588-0.002-19.228,0.611-28.747-0.196c-7.748-0.656-15.365-2.961-23.005-4.689
			C567.346,422.882,566.705,421.688,565.958,420.956z"/>
		<path fill-rule="evenodd" clip-rule="evenodd" fill="#555455" d="M534.976,412.016c6.362,2.299,12.724,4.598,19.087,6.896
			c-5.811-1.556-11.64-3.055-17.414-4.74C535.942,413.965,535.526,412.759,534.976,412.016z"/>
		<path fill-rule="evenodd" clip-rule="evenodd" fill="#555455" d="M526.974,410.963c2,0.336,4,0.671,6,1.006
			C530.322,415.523,528.64,413.289,526.974,410.963z"/>
		<path fill-rule="evenodd" clip-rule="evenodd" fill="#484649" d="M707.958,391.973c-20.307-5.161-40.553-10.583-60.944-15.384
			c-11.547-2.719-23.267-4.998-35.038-6.34c-5.9-0.674-12.088,1.212-18.15,1.898c-2.946,0.333-5.903,0.565-8.855,0.844
			c7.153-1.676,14.229-3.893,21.475-4.921c18.998-2.695,36.868,3.584,54.896,7.957c13.307,3.227,26.416,7.267,39.613,10.944
			c0.665,0.333,1.33,0.665,1.995,0.998c0.668,0.335,1.336,0.67,2.004,1.005c0.334,0.33,0.668,0.66,1.002,0.99
			C706.622,390.633,707.29,391.303,707.958,391.973z"/>
		<path fill-rule="evenodd" clip-rule="evenodd" fill="#484649" d="M584.988,372.98c-0.67,0.315-1.341,0.632-2.012,0.947
			C583.647,373.611,584.318,373.295,584.988,372.98z"/>
		<path fill-rule="evenodd" clip-rule="evenodd" fill="#48464A" d="M684.928,418.961c6.529-2.11,13.235-3.801,19.534-6.459
			c5.506-2.324,11.642-4.751,11.534-12.539c0.318,0,0.636,0.003,0.954,0.01c0.355,5.145,0.255,10.16-4.001,13.985
			c-8.617,1.995-17.228,4.02-25.864,5.924C686.464,420.02,685.651,419.289,684.928,418.961z"/>
		<path fill-rule="evenodd" clip-rule="evenodd" fill="#555455" d="M716.95,399.973c-0.318-0.007-0.636-0.01-0.954-0.01
			c-2.679-2.664-5.358-5.328-8.038-7.99c-0.668-0.67-1.336-1.34-2.004-2.009C710.503,388.461,716.508,393.928,716.95,399.973z"/>
		<path fill-rule="evenodd" clip-rule="evenodd" fill="#555455" d="M704.952,388.973c-0.668-0.335-1.336-0.67-2.004-1.005
			c0.421-0.5,0.843-0.999,1.264-1.499C704.459,387.304,704.705,388.138,704.952,388.973z"/>
	</g>
</g>
</svg>
