<?xml version="1.0" encoding="utf-8"?>
<!-- Generator: Adobe Illustrator 16.0.3, SVG Export Plug-In . SVG Version: 6.00 Build 0)  -->
<!DOCTYPE svg PUBLIC "-//W3C//DTD SVG 1.1//EN" "http://www.w3.org/Graphics/SVG/1.1/DTD/svg11.dtd">
<svg version="1.1" id="Capa_1" xmlns="http://www.w3.org/2000/svg" xmlns:xlink="http://www.w3.org/1999/xlink" x="0px" y="0px"
	 width="1224px" height="792px" viewBox="0 0 1224 792" enable-background="new 0 0 1224 792" xml:space="preserve">
<g>
	<g>
		<path fill-rule="evenodd" clip-rule="evenodd" fill="#FEFEFE" d="M322,689.927c0-194.643,0-389.284,0-583.927
			c194.642,0,389.284,0,583.927,0c0,194.643,0,389.284,0,583.927C711.284,689.927,516.642,689.927,322,689.927z M579.975,304.035
			c-1.019,0.288-2.038,0.577-3.056,0.866c-3.083,0.834-6.165,1.669-9.247,2.504c-2.382,1.1-4.765,2.199-7.147,3.298
			c-3.847,2.239-7.694,4.478-11.541,6.716l-0.004,0.021c-1.203,0.426-2.407,0.852-3.61,1.277c-2.108,1.38-4.218,2.759-6.326,4.139
			c-0.912,0.618-1.825,1.236-2.736,1.854c-2.082,2.428-4.163,4.855-6.244,7.283c-3.908,4.714-8.09,9.231-11.677,14.179
			c-16.262,22.432-21.271,47.571-15.707,74.396c5.853,28.219,24.078,47.192,48.81,60.473c24.404,13.104,50.354,18.522,77.985,14.987
			c28.515-3.648,52.477-16.205,70.959-38.113c10.098-11.97,16.792-26.051,20.351-41.553c4.069-17.729,3.663-35.052-3.826-51.78
			c-9.31-20.793-24.923-35.889-44.191-47.477c-10.587-6.367-21.991-10.542-33.999-13.571
			C619.036,298.557,599.514,296.528,579.975,304.035z"/>
		<path fill-rule="evenodd" clip-rule="evenodd" fill="#545455" d="M536.307,324.711c0.912-0.618,1.824-1.236,2.739-1.848
			c2.823-0.513,5.645-1.031,8.466-1.55c-0.04-0.471-0.081-0.942-0.121-1.414c-0.673-0.394-1.347-0.788-2.021-1.182
			c1.204-0.426,2.407-0.852,3.61-1.277c0.044,0.536,0.089,1.07,0.134,1.604c0.214-0.05,0.427-0.101,0.641-0.151
			c-0.257-0.491-0.514-0.983-0.771-1.475c3.847-2.238,7.694-4.477,11.541-6.715c2.051,2.931,4.572-0.084,6.806,0.54
			c0.114-1.28,0.227-2.56,0.341-3.839c3.083-0.835,6.165-1.67,9.247-2.504c0.574,0.792,1.149,1.583,1.724,2.375
			c0.444-1.081,0.888-2.161,1.332-3.241c19.539-7.507,39.061-5.478,58.792-0.499c12.008,3.029,23.412,7.204,33.999,13.571
			c19.269,11.587,34.882,26.684,44.191,47.477c7.489,16.728,7.896,34.05,3.826,51.78c-3.559,15.502-10.253,29.583-20.351,41.553
			c-18.482,21.908-42.444,34.465-70.959,38.113c-27.632,3.535-53.582-1.884-77.985-14.987c-24.732-13.28-42.957-32.254-48.81-60.473
			c-5.563-26.825-0.555-51.965,15.707-74.396c3.587-4.948,7.769-9.465,11.677-14.179c2.813-1.813,5.625-3.624,8.916-5.743
			C537.68,325.502,536.993,325.107,536.307,324.711z M517.974,433.947c0.333,0.676,0.667,1.352,1,2.026
			c0.107,0.815-0.072,1.854,0.364,2.412c5.529,7.095,10.264,15.142,16.951,20.922c9.736,8.418,20.771,15.419,33.628,18.655
			c0.7,0.325,1.399,0.65,2.098,0.976c0.296,0.015,0.593,0.025,0.89,0.032c6.699,1.987,13.398,3.973,20.097,5.96
			c11.105,3.305,22.594,4.495,33.829,2.328c11.277-2.175,22.262-6.018,33.243-9.539c9.331-2.993,18.589-6.499,25.027-14.47
			c6.437-7.967,12.561-16.185,18.821-24.292c0.681-1.33,1.361-2.659,2.042-3.988c0.326-0.359,0.653-0.719,0.98-1.078
			c-0.005-0.306,0.002-0.61,0.021-0.914c0.333-0.679,0.665-1.356,0.998-2.035c0.312-0.662,0.624-1.325,0.936-1.987
			c1.104-0.849,2.562-1.475,3.256-2.579c8.023-12.766,9.119-26.78,6.317-41.101c-4.2-21.469-14.791-39.08-32.755-52.08
			c-25.465-18.428-52.792-31.412-84.994-30.781c-0.09,0.434-0.18,0.867-0.27,1.301c3.717,0.176,7.434,0.351,11.15,0.526
			c0.079,0.419,0.159,0.836,0.238,1.255c-2.284,1.475-4.569,2.949-6.854,4.423c-7.62,2.163-15.519,3.648-22.79,6.655
			c-9.614,3.975-18.906,8.832-28.032,13.862c-16.845,9.284-30.24,21.937-37.55,40.247c-8.508,21.313-9.285,42.403,1.37,63.275
			L517.974,433.947z M583.685,305.226c0.025-0.14,0.05-0.279,0.075-0.418c-0.192,0.038-0.384,0.076-0.577,0.115
			c0.051,0.125,0.072,0.288,0.164,0.366C583.402,305.335,583.569,305.251,583.685,305.226z"/>
		<path fill-rule="evenodd" clip-rule="evenodd" fill="#646464" d="M536.307,324.711c0.686,0.396,1.373,0.791,2.671,1.54
			c-3.29,2.119-6.103,3.93-8.916,5.743C532.145,329.566,534.226,327.139,536.307,324.711z"/>
		<path fill-rule="evenodd" clip-rule="evenodd" fill="#646464" d="M545.37,318.718c0.674,0.394,1.348,0.788,2.021,1.182
			c0.041,0.472,0.081,0.943,0.121,1.414c-2.821,0.519-5.643,1.037-8.466,1.55C541.152,321.478,543.261,320.098,545.37,318.718z"/>
		<path fill-rule="evenodd" clip-rule="evenodd" fill="#646464" d="M567.672,307.405c-0.114,1.279-0.228,2.559-0.341,3.839
			c-2.233-0.624-4.755,2.391-6.806-0.54C562.907,309.604,565.29,308.505,567.672,307.405z"/>
		<path fill-rule="evenodd" clip-rule="evenodd" fill="#646464" d="M579.975,304.035c-0.444,1.08-0.888,2.16-1.332,3.241
			c-0.575-0.792-1.15-1.583-1.724-2.375C577.938,304.612,578.957,304.323,579.975,304.035z"/>
		<path fill-rule="evenodd" clip-rule="evenodd" fill="#562F71" d="M705.964,434.97c-0.681,1.329-1.361,2.658-2.041,3.988
			c-4.235-0.397-7.863,0.527-10.528,4.235c-2.707,3.768-5.644,7.371-8.408,10.954c-9.011-5.108-9.011-5.108-12.217-0.429
			c-1.319-0.891-2.641-1.783-3.177-2.146c-2.901,0.945-4.964,1.834-7.119,2.266c-2.802,0.56-5.852,0.264-8.483,1.207
			c-6.21,2.225-12.691,3.034-18.326-0.038c-5.388-2.937-7.784-0.897-10.224,3.212c-0.479,0.805-0.884,1.653-1.196,2.241
			c-5.736-0.872-11.116-1.773-16.52-2.491c-8.995-1.196-17.979-2.151-26.342-6.259c-6.518-3.201-13.435-5.584-20.021-8.658
			c-5.544-2.59-11.583-4.812-16.132-8.687c-8.428-7.183-15.856-15.509-21.713-25.071c-1.826-2.981-3.884-5.82-5.977-8.935
			c-0.526,6.302-1.004,12.048-1.49,17.867c1.48,1.133,3.476,2.659,4.532,3.468c-0.998,4.715-1.796,8.489-2.595,12.265
			c-10.655-20.872-9.878-41.963-1.37-63.275c7.31-18.311,20.705-30.963,37.55-40.247c9.126-5.031,18.417-9.888,28.032-13.862
			c7.271-3.007,15.17-4.492,22.789-6.654c9.104,0.439,18.375-0.064,27.283,1.497c25.724,4.509,47.458,16.431,63.835,37.216
			c11,13.959,16.92,29.825,17.88,47.605c0.611,11.298-2.071,22.017-5.087,32.716c-0.312,0.662-0.624,1.325-0.936,1.987
			c-0.333,0.679-0.666,1.356-0.998,2.035c-0.019,0.304-0.025,0.608-0.021,0.914C706.617,434.252,706.29,434.611,705.964,434.97z
			 M588.11,340.812c0.905-0.285,1.811-0.568,2.714-0.856c4.746-1.517,8.299-7.845,14.964-2.987
			c-1.333-5.655-2.696-10.559-4.668-15.204c-2.323-5.469-6.502-6.386-11.281-2.995c-3.362,2.387-7.012,4.437-10.077,7.152
			c-2.505,2.221-4.615,5.032-6.375,7.902c-1.514,2.47-2.552,5.323-3.327,8.136c-1.366,4.958-2.694,10.033,0.767,15.587
			c1.531-2.418,2.321-5.321,3.888-5.83c4.574-1.483,5.839-3.951,4.419-8.323c-0.21-0.647,0.263-1.517,0.345-1.914
			c3.027-0.149,5.702-0.281,8.376-0.412L588.11,340.812z M644.024,401.558c0.043-8.248-4.215-18.073-9.834-21.297
			c-14.865-8.53-28.905-7.451-41.535,4.639c-5.044,4.829-8.983,11.458-7.453,18.807c1.676,8.048,4.468,16.003,10.435,22.223
			c8.78,9.151,21.357,11.292,30.449,5.896C637.186,425.237,644.04,415.182,644.024,401.558z"/>
		<path fill-rule="evenodd" clip-rule="evenodd" fill="#3B2253" d="M517.986,433.96c0.798-3.775,1.597-7.55,2.595-12.265
			c-1.057-0.809-3.052-2.335-4.532-3.468c0.485-5.819,0.964-11.565,1.49-17.867c2.093,3.114,4.151,5.953,5.977,8.935
			c5.857,9.563,13.285,17.889,21.713,25.071c4.549,3.875,10.588,6.097,16.132,8.687c6.586,3.074,13.502,5.457,20.021,8.658
			c8.363,4.107,17.348,5.063,26.342,6.259c5.404,0.718,10.784,1.619,16.52,2.491c0.313-0.588,0.718-1.437,1.196-2.241
			c2.439-4.109,4.836-6.148,10.224-3.212c5.635,3.072,12.116,2.263,18.326,0.038c2.632-0.943,5.682-0.647,8.483-1.207
			c2.155-0.432,4.218-1.32,7.119-2.266c0.536,0.362,1.857,1.255,3.177,2.146c3.206-4.68,3.206-4.68,12.217,0.429
			c2.765-3.583,5.701-7.187,8.408-10.954c2.665-3.708,6.293-4.633,10.528-4.235c-6.262,8.107-12.386,16.325-18.822,24.292
			c-6.438,7.971-15.696,11.477-25.027,14.47c-10.981,3.521-21.966,7.364-33.243,9.539c-11.234,2.167-22.723,0.977-33.829-2.328
			c-6.699-1.986-13.397-3.973-20.096-5.96c-0.297-0.007-0.593-0.018-0.89-0.032c-0.699-0.325-1.398-0.65-2.098-0.976
			c-12.858-3.236-23.892-10.237-33.628-18.655c-6.687-5.78-11.421-13.827-16.951-20.922c-0.436-0.559-0.257-1.597-0.364-2.412
			c-0.333-0.675-0.667-1.351-1-2.026L517.986,433.96z"/>
		<path fill-rule="evenodd" clip-rule="evenodd" fill="#484648" d="M708.898,428.955c3.016-10.699,5.698-21.418,5.087-32.716
			c-0.96-17.78-6.88-33.646-17.88-47.605c-16.377-20.785-38.111-32.707-63.835-37.216c-8.908-1.562-18.179-1.058-27.283-1.498
			c2.285-1.474,4.57-2.949,6.854-4.423c-0.079-0.419-0.159-0.836-0.238-1.255c-3.717-0.176-7.434-0.351-11.15-0.526
			c0.09-0.434,0.18-0.867,0.27-1.301c32.202-0.631,59.529,12.353,84.994,30.781c17.964,13,28.555,30.61,32.755,52.08
			c2.802,14.32,1.706,28.335-6.317,41.101C711.46,427.48,710.002,428.106,708.898,428.955z"/>
		<path fill-rule="evenodd" clip-rule="evenodd" fill="#53306C" d="M572.905,478.971c6.699,1.987,13.397,3.974,20.096,5.96
			C586.303,482.943,579.604,480.958,572.905,478.971z"/>
		<path fill-rule="evenodd" clip-rule="evenodd" fill="#484648" d="M706.965,432.978c0.332-0.679,0.665-1.356,0.998-2.035
			C707.63,431.621,707.298,432.299,706.965,432.978z"/>
		<path fill-rule="evenodd" clip-rule="evenodd" fill="#562F71" d="M517.974,433.947c0.333,0.676,0.667,1.352,1,2.026
			C518.64,435.299,518.307,434.623,517.974,433.947z"/>
		<path fill-rule="evenodd" clip-rule="evenodd" fill="#646464" d="M583.685,305.226c-0.116,0.025-0.283,0.109-0.337,0.063
			c-0.092-0.078-0.113-0.24-0.164-0.366c0.192-0.039,0.384-0.077,0.577-0.115C583.735,304.947,583.71,305.086,583.685,305.226z"/>
		<path fill-rule="evenodd" clip-rule="evenodd" fill="#646464" d="M548.984,317.419c0.257,0.491,0.514,0.983,0.771,1.475
			c-0.214,0.051-0.427,0.102-0.641,0.151c-0.045-0.534-0.09-1.068-0.134-1.604L548.984,317.419z"/>
		<path fill-rule="evenodd" clip-rule="evenodd" fill="#53306C" d="M569.917,477.963c0.699,0.325,1.398,0.65,2.098,0.976
			C571.316,478.613,570.617,478.288,569.917,477.963z"/>
		<path fill-rule="evenodd" clip-rule="evenodd" fill="#484648" d="M705.964,434.97c0.326-0.358,0.653-0.718,0.98-1.078
			C706.617,434.251,706.29,434.61,705.964,434.97z"/>
		<path fill-rule="evenodd" clip-rule="evenodd" fill="#E2292A" d="M644.024,401.558c0.016,13.624-6.839,23.68-17.938,30.267
			c-9.092,5.396-21.669,3.256-30.449-5.896c-5.966-6.22-8.758-14.175-10.435-22.223c-1.531-7.349,2.409-13.978,7.453-18.807
			c12.629-12.09,26.669-13.169,41.535-4.639C639.81,383.484,644.067,393.31,644.024,401.558z M630.248,415.892
			c1.548-1.002,3.96-1.687,4.468-3.069c1.157-3.151,1.38-6.646,2.052-10.389c-1.246-0.853-2.835-1.94-4.426-3.028
			c0.439-0.11,0.878-0.221,1.317-0.331c-0.287-2.206,0.081-4.824-0.997-6.53c-2.253-3.564-4.85-7.155-8.072-9.804
			c-4.6-3.78-12.754-1.823-15.759,3.106c-2.246,2.146-4.314,4.528-6.772,6.395c-7.704,5.847-6.797,15.276-3.587,22.167
			c1.043,2.241,3.083,4.569,5.261,5.601c3.417,1.618,7.403,1.98,11.031,3.22c4.801,1.641,8.402-0.334,11.738-3.362
			C627.846,418.647,629.005,417.223,630.248,415.892z"/>
		<path fill-rule="evenodd" clip-rule="evenodd" fill="#937FA1" d="M587.856,341.069c-2.675,0.131-5.35,0.263-8.376,0.412
			c-0.082,0.397-0.555,1.267-0.345,1.914c1.419,4.372,0.154,6.84-4.419,8.323c-1.567,0.509-2.357,3.411-3.888,5.83
			c-3.46-5.554-2.133-10.629-0.767-15.587c0.775-2.813,1.813-5.666,3.327-8.136c1.76-2.871,3.87-5.682,6.375-7.902
			c3.064-2.715,6.715-4.765,10.077-7.152c4.778-3.391,8.958-2.474,11.281,2.995c1.972,4.645,3.335,9.549,4.668,15.204
			c-6.666-4.857-10.218,1.471-14.964,2.987c-0.904,0.288-1.81,0.571-2.716,0.858c-0.223-0.125-0.443-0.252-0.664-0.379
			C587.582,340.646,587.719,340.857,587.856,341.069z"/>
		<path fill-rule="evenodd" clip-rule="evenodd" fill="#512121" d="M630.248,415.892c-1.243,1.331-2.402,2.756-3.746,3.975
			c-3.336,3.028-6.938,5.003-11.738,3.362c-3.627-1.239-7.614-1.602-11.031-3.22c-2.179-1.031-4.218-3.359-5.261-5.601
			c-3.21-6.891-4.117-16.32,3.587-22.167c2.458-1.867,4.526-4.249,6.773-6.394c3.471,0.063,7.285-0.793,10.346,0.356
			C629.849,390.213,635.217,405.303,630.248,415.892z M618.028,408.9c0.074,0.174,0.148,0.348,0.223,0.521
			c0.004-0.078,0.043-0.188,0.006-0.229c-0.086-0.094-0.208-0.155-0.316-0.229c-0.28-0.377-0.562-0.755-0.843-1.132
			c2.792-1.57,5.583-3.141,8.375-4.71c0.08-0.649,0.161-1.298,0.241-1.946c-5.414-2.346-10.828-4.691-16.924-7.333
			c1.098,3.409-1.412,5.701,1.152,9.24c1.966,2.712,3.264,4.823,6.503,5.498C616.973,408.688,617.501,408.793,618.028,408.9z"/>
		<path fill-rule="evenodd" clip-rule="evenodd" fill="#CDC3C3" d="M630.248,415.892c4.969-10.589-0.399-25.678-11.07-29.688
			c-3.061-1.149-6.875-0.293-10.346-0.356c3.003-4.93,11.158-6.888,15.758-3.107c3.223,2.648,5.819,6.24,8.072,9.804
			c1.078,1.706,0.71,4.324,0.997,6.53c-0.439,0.11-0.878,0.221-1.317,0.331c1.591,1.088,3.18,2.176,4.426,3.028
			c-0.672,3.742-0.895,7.237-2.052,10.389C634.208,414.205,631.796,414.89,630.248,415.892z"/>
		<path fill-rule="evenodd" clip-rule="evenodd" fill="#562F71" d="M587.856,341.069c-0.137-0.212-0.274-0.423-0.412-0.634
			c0.22,0.127,0.441,0.254,0.664,0.379C588.11,340.812,587.856,341.069,587.856,341.069z"/>
		<path fill-rule="evenodd" clip-rule="evenodd" fill="#C7C3C5" d="M616.443,408.586c-3.237-0.68-4.535-2.791-6.501-5.503
			c-2.564-3.539-0.055-5.831-1.152-9.24c6.096,2.642,11.51,4.987,16.924,7.333c-0.08,0.648-0.161,1.297-0.241,1.946
			c-2.792,1.569-5.583,3.14-8.375,4.71C616.854,408.062,616.637,408.313,616.443,408.586z"/>
		<path fill-rule="evenodd" clip-rule="evenodd" fill="#C7C3C5" d="M618.029,408.899c-0.528-0.106-1.057-0.212-1.585-0.316
			c0.192-0.271,0.41-0.521,0.653-0.751c0.281,0.377,0.563,0.755,0.843,1.132L618.029,408.899z"/>
		<path fill-rule="evenodd" clip-rule="evenodd" fill="#C7C3C5" d="M617.94,408.964c0.108,0.074,0.23,0.136,0.316,0.229
			c0.037,0.041-0.002,0.15-0.006,0.229c-0.074-0.174-0.148-0.348-0.223-0.522C618.029,408.899,617.94,408.964,617.94,408.964z"/>
	</g>
</g>
</svg>
