<?xml version="1.0" encoding="utf-8"?>
<!-- Generator: Adobe Illustrator 16.0.3, SVG Export Plug-In . SVG Version: 6.00 Build 0)  -->
<!DOCTYPE svg PUBLIC "-//W3C//DTD SVG 1.1//EN" "http://www.w3.org/Graphics/SVG/1.1/DTD/svg11.dtd">
<svg version="1.1" id="Capa_1" xmlns="http://www.w3.org/2000/svg" xmlns:xlink="http://www.w3.org/1999/xlink" x="0px" y="0px"
	 width="1224px" height="792px" viewBox="0 0 1224 792" enable-background="new 0 0 1224 792" xml:space="preserve">
<g>
	<g>
		<path fill-rule="evenodd" clip-rule="evenodd" fill="#FEFEFE" d="M322,106c194.642,0,389.284,0,583.927,0
			c0,194.643,0,389.284,0,583.927c-194.643,0-389.284,0-583.926,0C322,495.284,322,300.643,322,106z M627.457,330.251
			c-10.737,0.87-20.753,2.054-30.799,2.414c-18.165,0.651-36.157,1.951-53.438,8.264c-27.114,9.904-43.936,30.943-42.713,62.087
			c0.511,13.016,5.939,24.028,15.48,32.995c8.405,7.901,18.364,13.155,29.129,16.853c24.217,8.315,49.287,9.996,74.725,10.298
			c26.081,0.31,49.849-6.604,72.354-19.042c10.879-6.012,19.249-14.689,25.898-25.068c6.801-10.617,8.657-22.32,6.199-34.49
			c-2.715-13.444-9.068-24.563-21.046-32.418c-10.496-6.883-20.938-13.771-33.437-15.952
			C655.603,333.71,641.235,332.144,627.457,330.251z"/>
		<path fill-rule="evenodd" clip-rule="evenodd" fill="#545455" d="M627.457,330.251c13.778,1.893,28.146,3.459,42.354,5.939
			c12.498,2.182,22.94,9.069,33.437,15.952c11.978,7.854,18.331,18.974,21.046,32.418c2.458,12.17,0.602,23.873-6.199,34.49
			c-6.649,10.379-15.02,19.057-25.898,25.068c-22.505,12.438-46.272,19.352-72.354,19.042c-25.438-0.302-50.508-1.982-74.725-10.298
			c-10.765-3.697-20.724-8.951-29.129-16.853c-9.541-8.967-14.97-19.979-15.48-32.995c-1.223-31.144,15.599-52.183,42.713-62.087
			c17.281-6.313,35.273-7.612,53.438-8.264C606.704,332.305,616.72,331.121,627.457,330.251z M517.985,423.936
			c0.345,0.341,0.691,0.683,1.037,1.023c9.805,10.539,22.107,16.768,35.813,20.382c7.976,2.104,16.07,3.755,24.112,5.608
			c1.338,0.017,2.677,0.033,4.016,0.05c0.666,0.009,1.332,0.017,1.999,0.025c0.977,0.643,1.92,1.781,2.935,1.849
			c7.277,0.483,14.577,0.628,21.853,1.123c5.268,0.358,10.499,1.339,15.767,1.577c4.427,0.2,8.975,0.226,13.309-0.557
			c7.305-1.318,14.441-3.541,21.724-5.015c10.663-2.158,21.907-2.542,30.679-10.21c5.497-4.806,11.041-9.601,16.129-14.824
			c14.968-15.372,15.774-30.332,8.536-47.573c-9.205-21.928-27.673-33.719-49.973-39.174c-11.803-2.887-24.115-3.922-36.266-5.066
			c-7.257-0.684-15.472-2.335-19.689,6.708c-9.87,1.706-19.764,3.283-29.603,5.15c-11.521,2.188-23.146,4.062-34.455,7.084
			c-20.175,5.391-35.705,23.601-35.966,44.876c-2.022,5.376-0.912,10.324,2.052,15.02c0.019,0.294,0.023,0.589,0.012,0.885
			c0.663,1.361,1.325,2.723,1.987,4.085l-0.011-0.016c0.343,0.999,0.687,1.999,1.03,2.997l-0.004-0.02
			c0.658,0.68,1.316,1.36,1.974,2.04l-0.008-0.01c0.343,0.666,0.688,1.332,1.031,1.998L517.985,423.936z"/>
		<path fill-rule="evenodd" clip-rule="evenodd" fill="#562F71" d="M509.94,396.973c0.262-21.275,15.791-39.485,35.966-44.876
			c11.309-3.022,22.934-4.896,34.455-7.084c9.839-1.868,19.733-3.445,29.603-5.149c20.29-0.373,40.445,0.807,60.123,6.163
			c14.027,3.818,27.254,9.632,35.771,22.012c15.368,22.337,10.705,57.828-21.964,72.386c-17.837,7.948-36.825,10.88-56.116,11.397
			c-14.255,0.382-28.543-0.486-42.816-0.797c-0.667-0.009-1.333-0.017-1.999-0.025c-1.339-0.017-2.678-0.033-4.016-0.05
			c-8.042-1.854-16.136-3.504-24.112-5.608c-13.706-3.614-26.007-9.843-35.813-20.382c-0.345-0.341-0.69-0.683-1.036-1.023
			c0,0,0.018,0.017,0.018,0.017c-0.344-0.666-0.688-1.332-1.031-1.998l0.008,0.01c-0.658-0.68-1.316-1.36-1.974-2.04
			c0,0,0.004,0.02,0.003,0.02c-0.343-0.998-0.687-1.998-1.03-2.997c0,0,0.011,0.016,0.011,0.016
			c-0.662-1.362-1.324-2.724-1.986-4.085c0.011-0.296,0.007-0.591-0.013-0.887C511.308,406.984,510.624,401.979,509.94,396.973z"/>
		<path fill-rule="evenodd" clip-rule="evenodd" fill="#484649" d="M584.961,451.024c14.273,0.311,28.562,1.179,42.816,0.797
			c19.291-0.518,38.279-3.449,56.116-11.397c32.669-14.558,37.332-50.048,21.964-72.386c-8.517-12.38-21.743-18.194-35.771-22.012
			c-19.678-5.356-39.833-6.536-60.123-6.163c4.218-9.044,12.433-7.392,19.689-6.708c12.15,1.144,24.463,2.179,36.266,5.066
			c22.3,5.455,40.768,17.246,49.973,39.174c7.238,17.242,6.432,32.201-8.536,47.573c-5.088,5.224-10.632,10.019-16.129,14.824
			c-8.771,7.668-20.016,8.052-30.679,10.21c-7.282,1.474-14.419,3.696-21.724,5.015c-4.334,0.782-8.882,0.757-13.309,0.557
			c-5.268-0.238-10.499-1.219-15.767-1.577c-7.276-0.495-14.576-0.64-21.853-1.123C586.881,452.806,585.938,451.667,584.961,451.024
			z"/>
		<path fill-rule="evenodd" clip-rule="evenodd" fill="#484649" d="M509.94,396.973c0.684,5.007,1.368,10.012,2.052,15.018
			C509.028,407.297,507.918,402.349,509.94,396.973z"/>
		<path fill-rule="evenodd" clip-rule="evenodd" fill="#484649" d="M512.004,412.877c0.662,1.361,1.325,2.723,1.986,4.085
			C513.329,415.6,512.667,414.238,512.004,412.877z"/>
		<path fill-rule="evenodd" clip-rule="evenodd" fill="#484649" d="M515.006,419.924c0.658,0.68,1.316,1.36,1.974,2.04
			C516.322,421.284,515.664,420.604,515.006,419.924z"/>
		<path fill-rule="evenodd" clip-rule="evenodd" fill="#484649" d="M578.946,450.949c1.338,0.017,2.677,0.033,4.016,0.05
			C581.624,450.982,580.285,450.966,578.946,450.949z"/>
		<path fill-rule="evenodd" clip-rule="evenodd" fill="#484649" d="M513.98,416.946c0.343,0.999,0.687,1.999,1.03,2.997
			C514.667,418.945,514.323,417.945,513.98,416.946z"/>
		<path fill-rule="evenodd" clip-rule="evenodd" fill="#484649" d="M516.972,421.954c0.343,0.666,0.687,1.332,1.031,1.998
			C517.66,423.286,517.315,422.62,516.972,421.954z"/>
		<path fill-rule="evenodd" clip-rule="evenodd" fill="#484649" d="M517.985,423.936c0.345,0.341,0.69,0.683,1.036,1.023
			C518.676,424.618,518.331,424.276,517.985,423.936z"/>
	</g>
</g>
</svg>
