<?xml version="1.0" encoding="utf-8"?>
<!-- Generator: Adobe Illustrator 16.0.3, SVG Export Plug-In . SVG Version: 6.00 Build 0)  -->
<!DOCTYPE svg PUBLIC "-//W3C//DTD SVG 1.1//EN" "http://www.w3.org/Graphics/SVG/1.1/DTD/svg11.dtd">
<svg version="1.1" id="Capa_1" xmlns="http://www.w3.org/2000/svg" xmlns:xlink="http://www.w3.org/1999/xlink" x="0px" y="0px"
	 width="1224px" height="792px" viewBox="0 0 1224 792" enable-background="new 0 0 1224 792" xml:space="preserve">
<g>
	<g>
		<path fill-rule="evenodd" clip-rule="evenodd" fill="#FEFEFE" d="M905.927,689.927c-194.643,0-389.285,0-583.927,0
			c0-194.643,0-389.284,0-583.927c194.642,0,389.284,0,583.927,0C905.927,300.643,905.927,495.284,905.927,689.927z M685.98,413.792
			c0.369-0.264,0.737-0.528,1.106-0.792c1.959-0.092,3.918-0.183,5.877-0.274c0.693-0.192,1.386-0.385,2.079-0.577
			c0.974-0.131,1.946-0.262,2.919-0.392c6.55-1.678,13.263-2.896,19.599-5.168c5.67-2.032,6.634-6.416,3.557-11.708
			c-1.322-0.927-2.52-2.313-3.986-2.713c-18.793-5.136-38.003-7.766-57.395-9.187c-6.257-0.458-12.542-0.564-18.791-1.106
			c-9.796-0.849-19.556-2.429-29.363-2.771c-9.387-0.328-18.818,0.455-28.224,0.894c-3.921,0.183-7.837,0.642-11.733,1.142
			c-12.146,1.56-24.25,3.517-36.43,4.721c-12.811,1.266-25.217,3.159-35.288,12.748c1.409,0.852,2.637,1.594,3.865,2.336
			c1.004,1.151,1.787,2.818,3.052,3.361c4.124,1.768,8.314,3.889,12.673,4.511c18.549,2.648,37.119,5.407,55.779,6.952
			c14.818,1.228,29.777,0.748,44.674,1.026c8.89-0.266,17.785-0.407,26.668-0.827C659.743,415.346,672.86,414.526,685.98,413.792z"
			/>
		<path fill-rule="evenodd" clip-rule="evenodd" fill="#525252" d="M697.962,411.757c-0.973,0.13-1.945,0.261-2.919,0.392
			c-0.693,0.192-1.386,0.385-2.079,0.577c-1.959,0.092-3.918,0.183-5.877,0.274c-0.369,0.264-0.737,0.528-1.106,0.792
			c-13.12,0.734-26.237,1.554-39.362,2.175c-8.883,0.42-17.778,0.562-26.668,0.827c-1.33-0.61-2.639-1.691-3.994-1.754
			c-10.082-0.471-20.243-0.104-30.245-1.21c-18.319-2.024-36.575-4.699-54.8-7.472c-9.11-1.386-18.096-3.584-27.139-5.415
			c-1.228-0.742-2.456-1.484-3.865-2.336c10.071-9.589,22.477-11.482,35.288-12.748c12.18-1.204,24.285-3.162,36.43-4.721
			c3.896-0.5,7.813-0.959,11.733-1.142c9.405-0.438,18.837-1.221,28.224-0.894c9.808,0.343,19.567,1.923,29.363,2.771
			c6.249,0.542,12.534,0.647,18.791,1.106c19.392,1.421,38.602,4.05,57.395,9.187c1.467,0.4,2.664,1.786,3.986,2.713
			c-1.724,2.361-3.448,4.721-5.172,7.082c-0.006-0.692-0.012-1.385-0.018-2.077c-0.014-0.29-0.025-0.58-0.032-0.871
			c2.48-0.653,2.766-1.921,0.569-3.177c-1.997-1.144-4.202-2.016-6.415-2.674c-19.995-5.953-40.65-7.005-61.293-8.234
			c-8.245-0.492-16.711-0.401-24.642-2.348c-12.87-3.161-24.333,1.288-36.173,4.402c-8.633,1.335-17.243,2.852-25.908,3.938
			c-5.321,0.667-10.725,0.677-16.092,0.981c-10.645-2.403-20.658,0.204-30.498,3.951c-0.374,0.143-0.331,1.379-0.483,2.106
			c3.665,1,7.297,2.146,11,2.977c28.975,6.495,58.411,8.552,88.006,9.044c0.563,0.309,1.124,0.882,1.689,0.887
			c8.295,0.071,16.592,0.12,24.886-0.004c0.815-0.012,1.613-1.194,2.42-1.833c0.667-0.007,1.334-0.014,2.001-0.02
			c0.333-0.006,0.666-0.011,0.999-0.016c2.993-0.009,5.987-0.018,8.981-0.025c1.453,0.664,2.964,2.002,4.352,1.885
			c9.341-0.789,18.647-1.975,27.981-2.86c9.796-0.931,19.761-0.947,28.673-6.034c-2.159,5.246-7.491,5.162-11.698,6.978
			C702.142,409.846,700.058,410.814,697.962,411.757z"/>
		<path fill-rule="evenodd" clip-rule="evenodd" fill="#484848" d="M503.772,400.943c9.042,1.831,18.028,4.029,27.139,5.415
			c18.226,2.772,36.481,5.447,54.8,7.472c10.002,1.106,20.164,0.739,30.245,1.21c1.355,0.063,2.664,1.144,3.994,1.754
			c-14.896-0.278-29.856,0.201-44.674-1.026c-18.66-1.545-37.229-4.304-55.779-6.952c-4.359-0.622-8.55-2.743-12.673-4.511
			C505.559,403.762,504.776,402.095,503.772,400.943z"/>
		<path fill-rule="evenodd" clip-rule="evenodd" fill="#4B4B4B" d="M715.945,401.962c1.724-2.36,3.448-4.721,5.172-7.082
			c3.077,5.292,2.113,9.676-3.557,11.708c-6.336,2.271-13.049,3.49-19.599,5.168c2.096-0.942,4.18-1.911,6.289-2.821
			c4.207-1.815,9.539-1.731,11.698-6.978L715.945,401.962z"/>
		<path fill-rule="evenodd" clip-rule="evenodd" fill="#4B4B4B" d="M692.964,412.726c0.693-0.192,1.386-0.385,2.079-0.577
			C694.35,412.341,693.657,412.533,692.964,412.726z"/>
		<path fill-rule="evenodd" clip-rule="evenodd" fill="#4B4B4B" d="M685.98,413.792c0.369-0.264,0.737-0.528,1.106-0.792
			C686.718,413.264,686.35,413.528,685.98,413.792z"/>
		<path fill-rule="evenodd" clip-rule="evenodd" fill="#552F71" d="M644.963,409.009c-0.667,0.006-1.334,0.013-2.001,0.019
			c-9.665,0.316-19.33,0.634-28.995,0.951c-29.595-0.492-59.031-2.549-88.006-9.044c-3.703-0.83-7.334-1.977-10.999-2.976
			c10.327-2.019,20.654-4.038,30.98-6.058c5.367-0.305,10.771-0.314,16.092-0.981c8.665-1.086,17.274-2.603,25.908-3.938
			c12.893,0.035,25.822-0.534,38.667,0.262c15.644,0.97,31.26,2.748,46.805,4.807c14.219,1.884,28.325,4.608,42.481,6.963
			c0.007,0.291,0.019,0.581,0.032,0.872c-2.642,0.972-5.216,2.484-7.937,2.822c-15.395,1.912-30.824,3.533-46.24,5.279
			c-2.277,0.258-4.539,0.65-6.808,0.98c-2.994,0.008-5.988,0.017-8.981,0.024C645.629,408.973,645.296,408.979,644.963,409.009z"/>
		<path fill-rule="evenodd" clip-rule="evenodd" fill="#484649" d="M715.896,399.014c-14.156-2.354-28.263-5.079-42.481-6.963
			c-15.545-2.059-31.161-3.837-46.805-4.807c-12.845-0.795-25.774-0.227-38.667-0.262c11.84-3.115,23.303-7.563,36.173-4.402
			c7.931,1.947,16.396,1.856,24.642,2.348c20.643,1.229,41.298,2.282,61.293,8.234c2.213,0.658,4.418,1.531,6.415,2.674
			C718.661,397.093,718.376,398.36,715.896,399.014z"/>
		<path fill-rule="evenodd" clip-rule="evenodd" fill="#484649" d="M654.943,408.968c2.269-0.33,4.53-0.723,6.808-0.98
			c15.416-1.746,30.846-3.367,46.24-5.279c2.721-0.338,5.295-1.851,7.937-2.822c0.006,0.691,0.012,1.384,0.018,2.076l0.004-0.004
			c-8.912,5.087-18.877,5.104-28.673,6.034c-9.334,0.886-18.641,2.071-27.981,2.86C657.907,410.97,656.396,409.632,654.943,408.968z
			"/>
		<path fill-rule="evenodd" clip-rule="evenodd" fill="#49464C" d="M545.942,391.901c-10.326,2.02-20.653,4.039-30.98,6.058
			c0.151-0.728,0.108-1.964,0.482-2.107C525.284,392.105,535.297,389.499,545.942,391.901z"/>
		<path fill-rule="evenodd" clip-rule="evenodd" fill="#484649" d="M613.967,409.979c9.665-0.317,19.33-0.635,28.995-0.951
			c-0.807,0.64-1.604,1.822-2.42,1.834c-8.294,0.124-16.591,0.075-24.886,0.004C615.091,410.86,614.53,410.287,613.967,409.979z"/>
		<path fill-rule="evenodd" clip-rule="evenodd" fill="#484649" d="M644.963,409.009c0.333-0.03,0.666-0.036,0.999-0.017
			C645.629,408.998,645.296,409.003,644.963,409.009z"/>
	</g>
</g>
</svg>
