<?xml version="1.0" encoding="utf-8"?>
<!-- Generator: Adobe Illustrator 16.0.3, SVG Export Plug-In . SVG Version: 6.00 Build 0)  -->
<!DOCTYPE svg PUBLIC "-//W3C//DTD SVG 1.1//EN" "http://www.w3.org/Graphics/SVG/1.1/DTD/svg11.dtd">
<svg version="1.1" id="Capa_1" xmlns="http://www.w3.org/2000/svg" xmlns:xlink="http://www.w3.org/1999/xlink" x="0px" y="0px"
	 width="1224px" height="792px" viewBox="0 0 1224 792" enable-background="new 0 0 1224 792" xml:space="preserve">
<g>
	<g>
		<path fill-rule="evenodd" clip-rule="evenodd" fill="#FEFEFE" d="M322,689.927c0-194.643,0-389.284,0-583.927
			c194.642,0,389.284,0,583.927,0c0,194.643,0,389.284,0,583.927C711.284,689.927,516.642,689.927,322,689.927z M541.146,401.963
			c19.541,0,38.526,0.024,57.511-0.029c2.592-0.007,4.261,0.444,6.003,2.968c5.04,7.296,14.469,7.364,19.498,0.077
			c1.897-2.75,3.764-3.052,6.483-3.042c15.33,0.055,30.661,0.039,45.991,0.021c6.478-0.008,6.799-0.41,5.771-6.703
			c-0.311-0.086-0.621-0.245-0.932-0.246c-16.497-0.023-32.994-0.091-49.49,0.003c-3.368,0.019-5.521-0.71-7.626-3.884
			c-4.583-6.911-16.521-6.363-20.235,0.767c-1.454,2.792-3.107,3.114-5.699,3.104c-17.497-0.065-34.993-0.034-52.49-0.034
			c-1.599,0-3.199,0-4.786,0C541.146,397.564,541.146,399.518,541.146,401.963z"/>
		<path fill-rule="evenodd" clip-rule="evenodd" fill="#474747" d="M541.146,401.963c0-2.445,0-4.398,0-7c1.587,0,3.187,0,4.786,0
			c17.497,0,34.993-0.031,52.49,0.034c2.592,0.01,4.245-0.312,5.699-3.104c3.714-7.13,15.652-7.678,20.235-0.767
			c2.104,3.174,4.258,3.903,7.626,3.884c16.496-0.094,32.993-0.026,49.49-0.003c0.311,0.001,0.621,0.16,0.93,0.252
			c1.029,6.287,0.708,6.689-5.77,6.697c-15.33,0.019-30.661,0.034-45.991-0.021c-2.72-0.01-4.586,0.292-6.483,3.042
			c-5.028,7.287-14.458,7.219-19.498-0.077c-1.743-2.523-3.412-2.975-6.003-2.968C579.672,401.987,560.687,401.963,541.146,401.963z
			"/>
	</g>
</g>
</svg>
