<?xml version="1.0" encoding="utf-8"?>
<!-- Generator: Adobe Illustrator 16.0.3, SVG Export Plug-In . SVG Version: 6.00 Build 0)  -->
<!DOCTYPE svg PUBLIC "-//W3C//DTD SVG 1.1//EN" "http://www.w3.org/Graphics/SVG/1.1/DTD/svg11.dtd">
<svg version="1.1" id="Capa_1" xmlns="http://www.w3.org/2000/svg" xmlns:xlink="http://www.w3.org/1999/xlink" x="0px" y="0px"
	 width="1224px" height="792px" viewBox="0 0 1224 792" enable-background="new 0 0 1224 792" xml:space="preserve">
<g>
	<g>
		<path fill-rule="evenodd" clip-rule="evenodd" fill="#FEFEFE" d="M322,689.927c0-194.643,0-389.284,0-583.927
			c194.642,0,389.284,0,583.927,0c0,194.643,0,389.284,0,583.927C711.284,689.927,516.642,689.927,322,689.927z M506.201,401.287
			c1.683,0.076,3.153,0.196,4.625,0.202c28.151,0.112,56.303,0.238,84.454,0.273c2.8,0.003,4.576,0.489,6.414,3.167
			c4.998,7.285,14.476,7.29,19.514,0.03c1.827-2.632,3.569-3.2,6.399-3.203c28.151-0.025,56.303-0.158,84.454-0.26
			c1.474-0.005,2.947,0,4.65,0c0-2.491,0-4.566,0-7.067c-2.049,0-3.86,0.006-5.673-0.001c-27.818-0.101-55.637-0.236-83.454-0.255
			c-2.852-0.002-4.598-0.58-6.391-3.23c-4.228-6.247-15.191-6.322-19.386-0.048c-1.945,2.909-3.973,3.254-6.883,3.261
			c-28.153,0.069-56.306,0.212-84.458,0.354c-1.421,0.007-2.842,0.201-4.267,0.308C506.201,397.168,506.201,399.104,506.201,401.287
			z"/>
		<path fill-rule="evenodd" clip-rule="evenodd" fill="#474747" d="M506.201,401.287c0-2.184,0-4.119,0-6.468
			c1.425-0.107,2.845-0.301,4.267-0.308c28.152-0.143,56.305-0.285,84.458-0.354c2.91-0.007,4.938-0.352,6.883-3.261
			c4.195-6.274,15.158-6.199,19.386,0.048c1.793,2.65,3.539,3.229,6.391,3.23c27.817,0.019,55.636,0.154,83.454,0.255
			c1.813,0.007,3.624,0.001,5.673,0.001c0,2.501,0,4.576,0,7.067c-1.703,0-3.177-0.005-4.65,0
			c-28.151,0.102-56.303,0.234-84.454,0.26c-2.83,0.003-4.572,0.571-6.399,3.203c-5.038,7.26-14.517,7.255-19.514-0.03
			c-1.838-2.678-3.614-3.164-6.414-3.167c-28.151-0.035-56.302-0.161-84.454-0.273C509.354,401.483,507.884,401.363,506.201,401.287
			z"/>
	</g>
</g>
</svg>
