<?xml version="1.0" encoding="utf-8"?>
<!-- Generator: Adobe Illustrator 16.0.3, SVG Export Plug-In . SVG Version: 6.00 Build 0)  -->
<!DOCTYPE svg PUBLIC "-//W3C//DTD SVG 1.1//EN" "http://www.w3.org/Graphics/SVG/1.1/DTD/svg11.dtd">
<svg version="1.1" id="Capa_1" xmlns="http://www.w3.org/2000/svg" xmlns:xlink="http://www.w3.org/1999/xlink" x="0px" y="0px"
	 width="1224px" height="792px" viewBox="0 0 1224 792" enable-background="new 0 0 1224 792" xml:space="preserve">
<g>
	<g>
		<path fill-rule="evenodd" clip-rule="evenodd" fill="#FEFEFE" d="M322,689.927c0-194.643,0-389.284,0-583.927
			c194.642,0,389.284,0,583.927,0c0,194.643,0,389.284,0,583.927C711.284,689.927,516.642,689.927,322,689.927z M612.851,409.961
			c5.185,0.058,10.782-5.927,11.03-11.792c0.253-5.98-5.811-11.994-12.279-12.18c-6.517-0.188-11.28,4.702-11.713,11.158
			C599.308,405.787,604.204,409.385,612.851,409.961z"/>
		<path fill-rule="evenodd" clip-rule="evenodd" fill="#474747" d="M612.851,409.961c-8.647-0.576-13.542-4.174-12.962-12.813
			c0.433-6.456,5.196-11.346,11.713-11.158c6.469,0.186,12.532,6.199,12.279,12.18C623.633,404.034,618.035,410.019,612.851,409.961
			z M611.779,404.962c6.281,0.021,7.138-0.761,7.184-6.567c0.052-6.601-0.69-7.411-6.815-7.431
			c-6.281-0.021-7.137,0.763-7.183,6.567C604.912,404.133,605.655,404.942,611.779,404.962z"/>
		<path fill-rule="evenodd" clip-rule="evenodd" fill="#474747" d="M611.779,404.962c-6.124-0.02-6.867-0.829-6.815-7.431
			c0.046-5.805,0.902-6.588,7.183-6.567c6.125,0.02,6.867,0.83,6.815,7.431C618.917,404.201,618.061,404.982,611.779,404.962z
			 M606.185,399.325c1.773,1.207,3.905,3.697,5.236,3.324c2.041-0.572,3.531-3.113,5.255-4.818
			c-1.627-1.286-3.099-3.292-4.919-3.687C609.176,393.585,606.746,394.68,606.185,399.325z"/>
		<path fill-rule="evenodd" clip-rule="evenodd" fill="#2F4075" d="M606.185,399.325c0.561-4.645,2.991-5.74,5.572-5.181
			c1.82,0.395,3.292,2.4,4.919,3.687c-1.724,1.705-3.214,4.246-5.255,4.818C610.09,403.022,607.958,400.532,606.185,399.325z"/>
	</g>
</g>
</svg>
